<svg width="60" height="60" viewBox="0 0 60 60" fill="none" xmlns="http://www.w3.org/2000/svg">
<path opacity="0.4" d="M6.875 46.625C5.85 46.625 5 45.775 5 44.75V30.5C4.875 23.725 7.4 17.325 12.1 12.525C16.8 7.75 23.1 5.125 29.875 5.125C43.725 5.125 55 16.4 55 30.25V44.5C55 45.525 54.15 46.375 53.125 46.375C52.1 46.375 51.25 45.525 51.25 44.5V30.25C51.25 18.475 41.675 8.875 29.875 8.875C24.1 8.875 18.75 11.1 14.775 15.15C10.775 19.225 8.65 24.65 8.75 30.45V44.725C8.75 45.775 7.925 46.625 6.875 46.625Z" fill="#5C5CFF"/>
<path d="M14.85 31.125H14.525C9.275 31.125 5 35.4 5 40.65V45.35C5 50.6 9.275 54.875 14.525 54.875H14.85C20.1 54.875 24.375 50.6 24.375 45.35V40.65C24.375 35.4 20.1 31.125 14.85 31.125ZM45.475 31.125H45.15C39.9 31.125 35.625 35.4 35.625 40.65V45.35C35.625 50.6 39.9 54.875 45.15 54.875H45.475C50.725 54.875 55 50.6 55 45.35V40.65C55 35.4 50.725 31.125 45.475 31.125Z" fill="#5C5CFF"/>
</svg>
