<svg width="35" height="35" viewBox="0 0 35 35" fill="none" xmlns="http://www.w3.org/2000/svg">
<path opacity="0.4" d="M29.225 9.94872L20.825 4.07164C18.5354 2.46747 15.0208 2.55497 12.8188 4.26122L5.5125 9.96331C4.05417 11.1008 2.90208 13.4341 2.90208 15.2716V25.3341C2.90208 29.0529 5.92083 32.0862 9.63958 32.0862H25.3604C29.0792 32.0862 32.0979 29.0675 32.0979 25.3487V15.4612C32.0979 13.4925 30.8292 11.0716 29.225 9.94872Z" fill="#5C5CFF"/>
<path d="M17.5 27.3438C16.9021 27.3438 16.4062 26.8479 16.4062 26.25V21.875C16.4062 21.2771 16.9021 20.7812 17.5 20.7812C18.0979 20.7812 18.5938 21.2771 18.5938 21.875V26.25C18.5938 26.8479 18.0979 27.3438 17.5 27.3438Z" fill="#5C5CFF"/>
</svg>
