<svg width="80" height="80" viewBox="0 0 80 80" fill="none" xmlns="http://www.w3.org/2000/svg">
<path opacity="0.4" d="M56.64 36.4333V43.5666C56.6405 47.4036 55.3178 51.1234 52.895 54.0988C50.4722 57.0741 47.0976 59.123 43.34 59.8999C42.2734 60.0999 41.1734 60.2333 40.04 60.2333H39.9734C38.84 60.2333 37.74 60.0999 36.6734 59.8999C35.695 59.6925 34.736 59.4026 33.8067 59.0333L31.9734 58.1666C31.54 57.8999 31.1067 57.6666 30.7067 57.3666C28.4471 55.8435 26.5964 53.7883 25.3177 51.3819C24.0389 48.9755 23.3712 46.2917 23.3734 43.5666V36.4333C23.3734 33.5666 24.1067 30.8666 25.3734 28.4999C25.64 28.0333 25.9067 27.5666 26.2067 27.1333C26.5067 26.6666 26.84 26.2666 27.1734 25.8333C27.5067 25.4333 27.8734 25.0333 28.24 24.6666C29.0067 23.8999 29.84 23.2333 30.7067 22.6333C31.1734 22.3333 31.6067 22.0333 32.1067 21.7666C32.5067 21.5666 32.94 21.3333 33.3734 21.1333C33.94 20.8999 34.5067 20.6666 35.0734 20.5333C35.54 20.3666 36.0067 20.2666 36.4734 20.1666C36.5734 20.0999 36.7067 20.0999 36.84 20.0666C37.8734 19.8666 38.9067 19.7666 39.9734 19.7666H40.04C41.1067 19.7666 42.1734 19.8666 43.2067 20.0666C43.24 20.0999 43.3067 20.0999 43.34 20.0999C43.8734 20.2333 44.4067 20.3666 44.94 20.5333C45.4734 20.6666 45.9734 20.8666 46.4734 21.0666C46.9734 21.2999 47.4734 21.5333 47.94 21.7666C49.34 22.5666 50.64 23.5333 51.7734 24.6666C54.7734 27.6666 56.64 31.8333 56.64 36.4333Z" fill="#5C5CFF"/>
<path d="M73.3334 32.5001C71.9667 32.5001 70.8334 31.3667 70.8334 30.0001V23.3334C70.8334 14.7334 65.2667 9.16675 56.6667 9.16675H50C48.6334 9.16675 47.5 8.03341 47.5 6.66675C47.5 5.30008 48.6334 4.16675 50 4.16675H56.6667C68.1334 4.16675 75.8334 11.8667 75.8334 23.3334V30.0001C75.8334 31.3667 74.7 32.5001 73.3334 32.5001ZM6.66669 32.5001C5.30002 32.5001 4.16669 31.3667 4.16669 30.0001V23.3334C4.16669 11.8667 11.8667 4.16675 23.3334 4.16675H30C31.3667 4.16675 32.5 5.30008 32.5 6.66675C32.5 8.03341 31.3667 9.16675 30 9.16675H23.3334C14.7334 9.16675 9.16669 14.7334 9.16669 23.3334V30.0001C9.16669 31.3667 8.03335 32.5001 6.66669 32.5001ZM56.6667 75.8334H50C48.6334 75.8334 47.5 74.7001 47.5 73.3334C47.5 71.9668 48.6334 70.8334 50 70.8334H56.6667C65.2667 70.8334 70.8334 65.2668 70.8334 56.6668V50.0001C70.8334 48.6334 71.9667 47.5001 73.3334 47.5001C74.7 47.5001 75.8334 48.6334 75.8334 50.0001V56.6668C75.8334 68.1334 68.1334 75.8334 56.6667 75.8334ZM30 75.8334H23.3334C11.8667 75.8334 4.16669 68.1334 4.16669 56.6668V50.0001C4.16669 48.6334 5.30002 47.5001 6.66669 47.5001C8.03335 47.5001 9.16669 48.6334 9.16669 50.0001V56.6668C9.16669 65.2668 14.7334 70.8334 23.3334 70.8334H30C31.3667 70.8334 32.5 71.9668 32.5 73.3334C32.5 74.7001 31.3667 75.8334 30 75.8334ZM40.0067 52.1001C35.6067 52.1001 32.0067 48.5001 32.0067 44.1001V35.8668C32.0067 31.4667 35.6067 27.8667 40.0067 27.8667C44.4067 27.8667 48.0067 31.4667 48.0067 35.8668V44.1001C48.0067 45.1507 47.7998 46.1909 47.3977 47.1616C46.9957 48.1322 46.4064 49.0141 45.6635 49.7569C44.9207 50.4998 44.0388 51.0891 43.0682 51.4911C42.0976 51.8932 41.0573 52.1001 40.0067 52.1001ZM40.0067 32.9001C38.3734 32.9001 37.0067 34.2334 37.0067 35.9001V44.1334C37.0067 45.8001 38.34 47.1334 40.0067 47.1334C41.6734 47.1334 43.0067 45.8001 43.0067 44.1334V35.9001C43.0067 34.2334 41.64 32.9001 40.0067 32.9001Z" fill="#5C5CFF"/>
</svg>
