<svg width="20" height="20" viewBox="0 0 20 20" fill="none" xmlns="http://www.w3.org/2000/svg">
<path d="M17.9998 9.3501L14.1665 6.26678V4.16679C14.1869 3.74591 14.0396 3.33411 13.7569 3.02168C13.4741 2.70925 13.079 2.52169 12.6582 2.50013H3.15824C2.74039 2.52593 2.34952 2.71532 2.07031 3.02728C1.79111 3.33924 1.64606 3.74864 1.66658 4.16679V12.5001C1.65885 12.831 1.74983 13.1567 1.92792 13.4357C2.10602 13.7148 2.36316 13.9344 2.66658 14.0667C2.51311 14.4422 2.4533 14.8494 2.4923 15.2531C2.53131 15.6568 2.66796 16.045 2.89047 16.3841C3.11298 16.7232 3.41467 17.0031 3.76949 17.1997C4.12432 17.3962 4.52163 17.5034 4.92715 17.5121C5.33266 17.5208 5.7342 17.4307 6.09712 17.2495C6.46004 17.0684 6.77344 16.8017 7.01027 16.4724C7.2471 16.1431 7.40026 15.7611 7.45652 15.3595C7.51279 14.9578 7.47047 14.5484 7.33323 14.1667H12.6332C12.4961 14.5444 12.4521 14.9494 12.5048 15.3477C12.5575 15.7459 12.7054 16.1256 12.936 16.4545C13.1665 16.7835 13.473 17.052 13.8293 17.2375C14.1857 17.4229 14.5815 17.5197 14.9832 17.5197C15.3849 17.5197 15.7807 17.4229 16.1371 17.2375C16.4934 17.052 16.7999 16.7835 17.0304 16.4545C17.261 16.1256 17.4089 15.7459 17.4616 15.3477C17.5143 14.9494 17.4702 14.5444 17.3332 14.1667H17.4998C17.7209 14.1667 17.9328 14.0789 18.0891 13.9227C18.2454 13.7664 18.3332 13.5544 18.3332 13.3334V10.0001C18.3306 9.87355 18.2993 9.74925 18.2415 9.63663C18.1838 9.524 18.1011 9.42601 17.9998 9.3501ZM16.6665 10.4001V12.5001H14.1665V8.4001L16.6665 10.4001ZM5.83323 15.0001C5.83323 15.1649 5.78436 15.326 5.69279 15.463C5.60122 15.6001 5.47108 15.7069 5.3188 15.77C5.16653 15.833 4.99898 15.8495 4.83733 15.8174C4.67568 15.7852 4.52719 15.7059 4.41065 15.5893C4.29411 15.4728 4.21474 15.3243 4.18258 15.1626C4.15043 15.001 4.16693 14.8334 4.23001 14.6812C4.29308 14.5289 4.39989 14.3988 4.53693 14.3072C4.67397 14.2156 4.83509 14.1667 4.9999 14.1667C5.22092 14.1667 5.43288 14.2545 5.58916 14.4108C5.74544 14.5671 5.83323 14.7791 5.83323 15.0001ZM9.99988 12.5001H3.33324V4.16679H12.4999V12.5001H9.99988ZM15.8332 15.0001C15.8332 15.1649 15.7843 15.326 15.6927 15.463C15.6012 15.6001 15.471 15.7069 15.3188 15.77C15.1665 15.833 14.9989 15.8495 14.8373 15.8174C14.6756 15.7852 14.5271 15.7059 14.4106 15.5893C14.2941 15.4728 14.2147 15.3243 14.1825 15.1626C14.1504 15.001 14.1669 14.8334 14.23 14.6812C14.293 14.5289 14.3998 14.3988 14.5369 14.3072C14.6739 14.2156 14.835 14.1667 14.9999 14.1667C15.2209 14.1667 15.4328 14.2545 15.5891 14.4108C15.7454 14.5671 15.8332 14.7791 15.8332 15.0001Z" fill="black"/>
</svg>
