<svg width="30" height="30" viewBox="0 0 30 30" fill="none" xmlns="http://www.w3.org/2000/svg">
<path d="M15 11.25V2.5L12.5 5M15 2.5L17.5 5M2.47498 16.25H7.98748C8.46248 16.25 8.88748 16.5125 9.09998 16.9375L10.5625 19.8625C10.7694 20.279 11.0885 20.6295 11.4838 20.8747C11.8791 21.1198 12.3349 21.2498 12.8 21.25H17.2125C17.6776 21.2498 18.1334 21.1198 18.5287 20.8747C18.9239 20.6295 19.243 20.279 19.45 19.8625L20.9125 16.9375C21.0164 16.7314 21.1753 16.558 21.3716 16.4367C21.568 16.3153 21.7941 16.2507 22.025 16.25H27.475" stroke="#001B33" stroke-width="1.5" stroke-linecap="round" stroke-linejoin="round"/>
<path d="M8.75 6.4126C4.325 7.0626 2.5 9.6626 2.5 15.0001V18.7501C2.5 25.0001 5 27.5001 11.25 27.5001H18.75C25 27.5001 27.5 25.0001 27.5 18.7501V15.0001C27.5 9.6626 25.675 7.0626 21.25 6.4126" stroke="#001B33" stroke-width="1.5" stroke-linecap="round" stroke-linejoin="round"/>
</svg>
