<svg width="20" height="20" viewBox="0 0 20 20" fill="none" xmlns="http://www.w3.org/2000/svg">
<path d="M7.49985 11.2498C7.49985 11.3728 7.47563 11.4945 7.42858 11.6081C7.38153 11.7217 7.31257 11.8249 7.22563 11.9119C7.13869 11.9988 7.03548 12.0678 6.92189 12.1148C6.8083 12.1619 6.68655 12.1861 6.56361 12.1861C6.44066 12.1861 6.31891 12.1619 6.20532 12.1148C6.09173 12.0678 5.98852 11.9988 5.90158 11.9119C5.81464 11.8249 5.74568 11.7217 5.69863 11.6081C5.65158 11.4945 5.62736 11.3728 5.62736 11.2498C5.62736 11.0015 5.726 10.7634 5.90158 10.5878C6.07716 10.4122 6.3153 10.3136 6.56361 10.3136C6.81191 10.3136 7.05005 10.4122 7.22563 10.5878C7.40121 10.7634 7.49985 11.0015 7.49985 11.2498ZM13.4361 12.1861C13.559 12.1861 13.6808 12.1619 13.7944 12.1148C13.908 12.0678 14.0112 11.9988 14.0981 11.9119C14.185 11.8249 14.254 11.7217 14.3011 11.6081C14.3481 11.4945 14.3723 11.3728 14.3723 11.2498C14.3723 11.1269 14.3481 11.0051 14.3011 10.8916C14.254 10.778 14.185 10.6747 14.0981 10.5878C14.0112 10.5009 13.908 10.4319 13.7944 10.3849C13.6808 10.3378 13.559 10.3136 13.4361 10.3136C13.1878 10.3136 12.9496 10.4122 12.7741 10.5878C12.5985 10.7634 12.4998 11.0015 12.4998 11.2498C12.4998 11.4981 12.5985 11.7363 12.7741 11.9119C12.9496 12.0874 13.1878 12.1861 13.4361 12.1861ZM3.79237 7.59235L3.80487 7.49985H3.12487C2.95911 7.49985 2.80014 7.434 2.68293 7.31679C2.56572 7.19958 2.49987 7.04061 2.49987 6.87485C2.49987 6.7091 2.56572 6.55012 2.68293 6.43291C2.80014 6.31571 2.95911 6.24986 3.12487 6.24986H3.96612L4.16862 4.67986C4.24643 4.07694 4.54127 3.52302 4.99797 3.12177C5.45467 2.72052 6.04193 2.49943 6.64985 2.49987H13.3498C13.9581 2.49985 14.5455 2.72161 15.002 3.12359C15.4586 3.52558 15.7529 4.08022 15.8298 4.68361L16.0286 6.24986H16.8748C17.0406 6.24986 17.1995 6.31571 17.3168 6.43291C17.434 6.55012 17.4998 6.7091 17.4998 6.87485C17.4998 7.04061 17.434 7.19958 17.3168 7.31679C17.1995 7.434 17.0406 7.49985 16.8748 7.49985H16.1886L16.2011 7.58985C16.5785 7.71176 16.9076 7.95022 17.141 8.27097C17.3743 8.5917 17.5 8.97819 17.4998 9.37484V13.1248C17.4998 13.6221 17.3023 14.099 16.9506 14.4506C16.599 14.8023 16.1221 14.9998 15.6248 14.9998H15.6211V16.5623C15.6211 16.811 15.5223 17.0494 15.3465 17.2252C15.1707 17.401 14.9322 17.4998 14.6836 17.4998C14.4349 17.4998 14.1965 17.401 14.0207 17.2252C13.8448 17.0494 13.7461 16.811 13.7461 16.5623V14.9998H6.24986V16.5623C6.24986 16.811 6.15108 17.0494 5.97527 17.2252C5.79946 17.401 5.561 17.4998 5.31236 17.4998C5.06372 17.4998 4.82526 17.401 4.64945 17.2252C4.47364 17.0494 4.37486 16.811 4.37486 16.5623V14.9998C3.87759 14.9998 3.40067 14.8023 3.04904 14.4506C2.69742 14.099 2.49987 13.6221 2.49987 13.1248V9.37484C2.49981 8.97939 2.62479 8.59405 2.85693 8.2739C3.08907 7.95376 3.41648 7.71521 3.79237 7.59235ZM5.40861 4.83986L5.06486 7.49985H14.9286L14.5886 4.84111C14.55 4.53974 14.403 4.26274 14.175 4.06191C13.947 3.86107 13.6537 3.75014 13.3498 3.74987H6.64985C6.346 3.7498 6.05252 3.86041 5.8243 4.06102C5.59608 4.26164 5.44875 4.53851 5.40986 4.83986H5.40861ZM15.6248 13.7498C15.7906 13.7498 15.9495 13.684 16.0668 13.5668C16.184 13.4496 16.2498 13.2906 16.2498 13.1248V9.37484C16.2498 9.20908 16.184 9.05011 16.0668 8.9329C15.9495 8.81569 15.7906 8.74985 15.6248 8.74985H4.37486C4.2091 8.74985 4.05013 8.81569 3.93292 8.9329C3.81571 9.05011 3.74987 9.20908 3.74987 9.37484V13.1248C3.74987 13.2906 3.81571 13.4496 3.93292 13.5668C4.05013 13.684 4.2091 13.7498 4.37486 13.7498H15.6248Z" fill="black"/>
</svg>
