<svg width="25" height="25" viewBox="0 0 25 25" fill="none" xmlns="http://www.w3.org/2000/svg">
<path d="M14.5833 5.20834V4.16668C14.5833 3.02084 13.6458 2.08334 12.5 2.08334H8.33331C7.18748 2.08334 6.24998 3.02084 6.24998 4.16668V5.20834C3.95831 5.20834 2.08331 7.08334 2.08331 9.37501V20.8333C2.08331 21.9792 3.02081 22.9167 4.16665 22.9167H15.8333L13.75 20.8333H4.16665V16.6667H6.24998V18.75H7.29165V16.6667H12.5V15.625H4.16665V9.37501C4.16665 8.22918 5.10415 7.29168 6.24998 7.29168H14.5833C15.7291 7.29168 16.6666 8.22918 16.6666 9.37501V12.5H18.75V9.37501C18.75 7.08334 16.875 5.20834 14.5833 5.20834ZM12.5 5.20834H8.33331V4.16668H12.5V5.20834ZM10.4166 9.37501L8.33331 11.4583L10.4166 13.5417L12.5 11.4583L10.4166 9.37501ZM22.7083 18.5417L18.9583 14.7917C18.75 14.6875 18.5416 14.5833 18.3333 14.5833H15.4166C15 14.5833 14.5833 15 14.5833 15.4167V18.3333C14.5833 18.5417 14.6875 18.75 14.7916 18.9583L18.5416 22.7083C18.6458 22.8125 18.8541 22.9167 19.1666 22.9167C19.375 22.9167 19.5833 22.8125 19.7916 22.7083L22.7083 19.7917C22.8125 19.6875 22.9166 19.4792 22.9166 19.1667C22.9166 18.9583 22.8125 18.75 22.7083 18.5417ZM16.0416 16.6667C15.7291 16.6667 15.4166 16.3542 15.4166 16.0417C15.4166 15.7292 15.7291 15.4167 16.0416 15.4167C16.3541 15.4167 16.6666 15.7292 16.6666 16.0417C16.6666 16.3542 16.3541 16.6667 16.0416 16.6667Z" fill="white"/>
</svg>
