<svg width="20" height="20" viewBox="0 0 20 20" fill="none" xmlns="http://www.w3.org/2000/svg">
<path d="M8.14583 10.0002C7.64583 10.0002 7.22916 9.81266 6.89583 9.43766C6.56249 9.06266 6.43055 8.62516 6.49999 8.12516L6.77083 6.0835C6.88194 5.29183 7.24305 4.63572 7.85416 4.11516C8.46527 3.59405 9.18055 3.3335 9.99999 3.3335C10.8194 3.3335 11.5347 3.59405 12.1458 4.11516C12.7569 4.63572 13.1181 5.29183 13.2292 6.0835L13.5 8.12516C13.5694 8.62516 13.4375 9.06266 13.1042 9.43766C12.7708 9.81266 12.3542 10.0002 11.8542 10.0002H8.14583ZM8.14583 8.3335H11.8542L11.5833 6.3335C11.5278 5.94461 11.3508 5.62516 11.0525 5.37516C10.7536 5.12516 10.4028 5.00016 9.99999 5.00016C9.59722 5.00016 9.24666 5.12516 8.94833 5.37516C8.64944 5.62516 8.47222 5.94461 8.41666 6.3335L8.14583 8.3335ZM3.33333 16.6668V14.3335C3.33333 13.8613 3.455 13.4271 3.69833 13.031C3.94111 12.6354 4.26388 12.3335 4.66666 12.1252C5.52777 11.6946 6.40277 11.3716 7.29166 11.156C8.18055 10.941 9.08333 10.8335 9.99999 10.8335C10.9167 10.8335 11.8194 10.941 12.7083 11.156C13.5972 11.3716 14.4722 11.6946 15.3333 12.1252C15.7361 12.3335 16.0589 12.6354 16.3017 13.031C16.545 13.4271 16.6667 13.8613 16.6667 14.3335V16.6668H3.33333ZM4.99999 15.0002H15V14.3335C15 14.1807 14.9619 14.0418 14.8858 13.9168C14.8092 13.7918 14.7083 13.6946 14.5833 13.6252C13.8333 13.2502 13.0764 12.9688 12.3125 12.781C11.5486 12.5938 10.7778 12.5002 9.99999 12.5002C9.22222 12.5002 8.45138 12.5938 7.6875 12.781C6.92361 12.9688 6.16666 13.2502 5.41666 13.6252C5.29166 13.6946 5.19111 13.7918 5.11499 13.9168C5.03833 14.0418 4.99999 14.1807 4.99999 14.3335V15.0002Z" fill="#333333"/>
</svg>
