<svg width="20" height="20" viewBox="0 0 20 20" fill="none" xmlns="http://www.w3.org/2000/svg">
<path d="M6.25 7.5C6.25 7.33424 6.31585 7.17527 6.43306 7.05806C6.55027 6.94085 6.70924 6.875 6.875 6.875H13.125C13.2908 6.875 13.4497 6.94085 13.5669 7.05806C13.6842 7.17527 13.75 7.33424 13.75 7.5C13.75 7.66576 13.6842 7.82473 13.5669 7.94194C13.4497 8.05915 13.2908 8.125 13.125 8.125H6.875C6.70924 8.125 6.55027 8.05915 6.43306 7.94194C6.31585 7.82473 6.25 7.66576 6.25 7.5ZM6.875 0.625C6.70924 0.625 6.55027 0.690848 6.43306 0.808058C6.31585 0.925268 6.25 1.08424 6.25 1.25C6.25 1.41576 6.31585 1.57473 6.43306 1.69194C6.55027 1.80915 6.70924 1.875 6.875 1.875H7.5V3.125H5.9375C5.19158 3.125 4.47621 3.42132 3.94876 3.94876C3.42132 4.47621 3.125 5.19158 3.125 5.9375V15.3125C3.12487 16.0044 3.37979 16.6721 3.84101 17.1878C4.30223 17.7036 4.93738 18.0312 5.625 18.1081V18.75C5.625 18.9158 5.69085 19.0747 5.80806 19.1919C5.92527 19.3092 6.08424 19.375 6.25 19.375C6.41576 19.375 6.57473 19.3092 6.69194 19.1919C6.80915 19.0747 6.875 18.9158 6.875 18.75V18.125H13.125V18.75C13.125 18.9158 13.1908 19.0747 13.3081 19.1919C13.4253 19.3092 13.5842 19.375 13.75 19.375C13.9158 19.375 14.0747 19.3092 14.1919 19.1919C14.3092 19.0747 14.375 18.9158 14.375 18.75V18.1081C15.0626 18.0312 15.6978 17.7036 16.159 17.1878C16.6202 16.6721 16.8751 16.0044 16.875 15.3125V5.9375C16.875 5.19158 16.5787 4.47621 16.0512 3.94876C15.5238 3.42132 14.8084 3.125 14.0625 3.125H12.8125V1.875H13.125C13.2908 1.875 13.4497 1.80915 13.5669 1.69194C13.6842 1.57473 13.75 1.41576 13.75 1.25C13.75 1.08424 13.6842 0.925268 13.5669 0.808058C13.4497 0.690848 13.2908 0.625 13.125 0.625H6.875ZM14.0625 16.875H5.9375C5.5231 16.875 5.12567 16.7104 4.83265 16.4174C4.53962 16.1243 4.375 15.7269 4.375 15.3125V5.9375C4.375 5.5231 4.53962 5.12567 4.83265 4.83265C5.12567 4.53962 5.5231 4.375 5.9375 4.375H14.0625C14.4769 4.375 14.8743 4.53962 15.1674 4.83265C15.4604 5.12567 15.625 5.5231 15.625 5.9375V15.3125C15.625 15.7269 15.4604 16.1243 15.1674 16.4174C14.8743 16.7104 14.4769 16.875 14.0625 16.875ZM11.5625 1.875V3.125H8.75V1.875H11.5625Z" fill="#333333"/>
</svg>
