<svg width="20" height="20" viewBox="0 0 20 20" fill="none" xmlns="http://www.w3.org/2000/svg">
<path d="M9.12501 12.9582L13.8333 8.24984L12.6458 7.06234L9.12501 10.5832L7.37501 8.83317L6.18751 10.0207L9.12501 12.9582ZM10 18.3332C8.06945 17.8471 6.47584 16.7393 5.21918 15.0098C3.96195 13.2809 3.33334 11.3609 3.33334 9.24984V4.1665L10 1.6665L16.6667 4.1665V9.24984C16.6667 11.3609 16.0383 13.2809 14.7817 15.0098C13.5245 16.7393 11.9306 17.8471 10 18.3332ZM10 16.5832C11.4445 16.1248 12.6389 15.2082 13.5833 13.8332C14.5278 12.4582 15 10.9304 15 9.24984V5.31234L10 3.43734L5.00001 5.31234V9.24984C5.00001 10.9304 5.47223 12.4582 6.41668 13.8332C7.36112 15.2082 8.55557 16.1248 10 16.5832Z" fill="#333333"/>
</svg>
