<svg width="25" height="25" viewBox="0 0 25 25" fill="none" xmlns="http://www.w3.org/2000/svg">
<path d="M4.16667 11.4583C3.87153 11.4583 3.62431 11.3583 3.425 11.1583C3.225 10.959 3.125 10.7118 3.125 10.4167V4.16667C3.125 3.87153 3.225 3.62396 3.425 3.42396C3.62431 3.22465 3.87153 3.125 4.16667 3.125H10.4167C10.7118 3.125 10.9594 3.22465 11.1594 3.42396C11.3587 3.62396 11.4583 3.87153 11.4583 4.16667V10.4167C11.4583 10.7118 11.3587 10.959 11.1594 11.1583C10.9594 11.3583 10.7118 11.4583 10.4167 11.4583H4.16667ZM5.20833 5.20833V9.375V5.20833ZM14.5833 11.4583C14.2882 11.4583 14.041 11.3583 13.8417 11.1583C13.6417 10.959 13.5417 10.7118 13.5417 10.4167V4.16667C13.5417 3.87153 13.6417 3.62396 13.8417 3.42396C14.041 3.22465 14.2882 3.125 14.5833 3.125H20.8333C21.1285 3.125 21.3757 3.22465 21.575 3.42396C21.775 3.62396 21.875 3.87153 21.875 4.16667V10.4167C21.875 10.7118 21.775 10.959 21.575 11.1583C21.3757 11.3583 21.1285 11.4583 20.8333 11.4583H14.5833ZM15.625 5.20833V9.375V5.20833ZM4.16667 21.875C3.87153 21.875 3.62431 21.775 3.425 21.575C3.225 21.3757 3.125 21.1285 3.125 20.8333V14.5833C3.125 14.2882 3.225 14.0406 3.425 13.8406C3.62431 13.6413 3.87153 13.5417 4.16667 13.5417H10.4167C10.7118 13.5417 10.9594 13.6413 11.1594 13.8406C11.3587 14.0406 11.4583 14.2882 11.4583 14.5833V20.8333C11.4583 21.1285 11.3587 21.3757 11.1594 21.575C10.9594 21.775 10.7118 21.875 10.4167 21.875H4.16667ZM5.20833 15.625V19.7917V15.625ZM17.7083 21.875C17.4132 21.875 17.166 21.775 16.9667 21.575C16.7667 21.3757 16.6667 21.1285 16.6667 20.8333V18.75H14.5573C14.2622 18.75 14.0191 18.65 13.8281 18.45C13.6372 18.2507 13.5417 18.0035 13.5417 17.7083C13.5417 17.4132 13.6417 17.166 13.8417 16.9667C14.041 16.7667 14.2882 16.6667 14.5833 16.6667H16.6667V14.5573C16.6667 14.2622 16.7667 14.0191 16.9667 13.8281C17.166 13.6372 17.4132 13.5417 17.7083 13.5417C18.0035 13.5417 18.2507 13.6413 18.45 13.8406C18.65 14.0406 18.75 14.2882 18.75 14.5833V16.6667H20.8594C21.1545 16.6667 21.3976 16.7667 21.5885 16.9667C21.7795 17.166 21.875 17.4132 21.875 17.7083C21.875 18.0035 21.775 18.2507 21.575 18.45C21.3757 18.65 21.1285 18.75 20.8333 18.75H18.75V20.8594C18.75 21.1545 18.65 21.3976 18.45 21.5885C18.2507 21.7795 18.0035 21.875 17.7083 21.875ZM15.625 5.20833V9.375H19.7917V5.20833H15.625ZM5.20833 5.20833V9.375H9.375V5.20833H5.20833ZM5.20833 15.625V19.7917H9.375V15.625H5.20833Z" fill="white"/>
</svg>
