<svg width="25" height="25" viewBox="0 0 25 25" fill="none" xmlns="http://www.w3.org/2000/svg">
<path d="M6.8125 5.20833C6.875 6.13542 7.03125 7.04167 7.28125 7.90625L6.03125 9.15625C5.60417 7.90625 5.33333 6.58333 5.23958 5.20833H6.8125ZM17.0833 17.7292C17.9687 17.9792 18.875 18.1354 19.7917 18.1979V19.75C18.4167 19.6562 17.0937 19.3854 15.8333 18.9687L17.0833 17.7292ZM7.8125 3.125H4.16667C3.59375 3.125 3.125 3.59375 3.125 4.16667C3.125 13.9479 11.0521 21.875 20.8333 21.875C21.4062 21.875 21.875 21.4062 21.875 20.8333V17.1979C21.875 16.625 21.4062 16.1562 20.8333 16.1562C19.5417 16.1562 18.2812 15.9479 17.1146 15.5625C17.0112 15.525 16.9016 15.5073 16.7917 15.5104C16.5208 15.5104 16.2604 15.6146 16.0521 15.8125L13.7604 18.1042C10.8077 16.5942 8.40584 14.1923 6.89583 11.2396L9.1875 8.94792C9.47917 8.65625 9.5625 8.25 9.44792 7.88542C9.05276 6.68548 8.85231 5.43 8.85417 4.16667C8.85417 3.59375 8.38542 3.125 7.8125 3.125Z" fill="#505050"/>
</svg>
