<svg width="25" height="25" viewBox="0 0 25 25" fill="none" xmlns="http://www.w3.org/2000/svg">
<g clip-path="url(#clip0_0_5)">
<path d="M10.4167 2.08334V4.4375L12.5 5.82292V4.16667H22.9167V19.7917H17.7083V21.875H25V2.08334H10.4167ZM7.8125 5.20834L0 10.4167V21.875H15.625V10.4167L7.8125 5.20834ZM14.5833 6.25V7.21875L16.2604 8.33334H16.6667V6.25H14.5833ZM18.75 6.25V8.33334H20.8333V6.25H18.75ZM7.8125 7.8125L13.5417 11.4583V19.7917H10.4167V13.5417H5.20833V19.7917H2.08333V11.4583L7.8125 7.8125ZM18.75 10.4167V12.5H20.8333V10.4167H18.75ZM18.75 14.5833V16.6667H20.8333V14.5833H18.75Z" fill="#505050"/>
</g>
<defs>
<clipPath id="clip0_0_5">
<rect width="25" height="25" fill="white"/>
</clipPath>
</defs>
</svg>
