<svg width="25" height="25" viewBox="0 0 25 25" fill="none" xmlns="http://www.w3.org/2000/svg">
<path d="M7.29166 14.5833C9.02082 14.5833 10.4167 13.1874 10.4167 11.4583C10.4167 9.72908 9.02082 8.33325 7.29166 8.33325C5.56249 8.33325 4.16666 9.72908 4.16666 11.4583C4.16666 13.1874 5.56249 14.5833 7.29166 14.5833ZM7.29166 10.4166C7.86457 10.4166 8.33332 10.8853 8.33332 11.4583C8.33332 12.0312 7.86457 12.4999 7.29166 12.4999C6.71874 12.4999 6.24999 12.0312 6.24999 11.4583C6.24999 10.8853 6.71874 10.4166 7.29166 10.4166ZM19.7917 7.29159H11.4583V15.6249H3.12499V5.20825H1.04166V20.8333H3.12499V17.7083H21.875V20.8333H23.9583V11.4583C23.9583 9.15617 22.0937 7.29159 19.7917 7.29159ZM21.875 15.6249H13.5417V9.37492H19.7917C20.9375 9.37492 21.875 10.3124 21.875 11.4583V15.6249Z" fill="#737373"/>
</svg>
