<svg width="24" height="24" viewBox="0 0 24 24" fill="none" xmlns="http://www.w3.org/2000/svg">
<path opacity="0.4" d="M20.621 8.45C19.571 3.83 15.541 1.75 12.001 1.75H11.991C8.46101 1.75 4.42101 3.82 3.37101 8.44C2.20101 13.6 5.36101 17.97 8.22101 20.72C9.23473 21.7012 10.5902 22.2498 12.001 22.25C13.361 22.25 14.721 21.74 15.771 20.72C18.631 17.97 21.791 13.61 20.621 8.45Z" fill="#5C5CFF"/>
<path d="M12.002 13.4599C12.4157 13.4599 12.8253 13.3784 13.2074 13.2201C13.5896 13.0618 13.9369 12.8298 14.2294 12.5373C14.5219 12.2448 14.7539 11.8975 14.9122 11.5154C15.0705 11.1332 15.152 10.7236 15.152 10.3099C15.152 9.89625 15.0705 9.48664 14.9122 9.10446C14.7539 8.72228 14.5219 8.37503 14.2294 8.08253C13.9369 7.79002 13.5896 7.55799 13.2074 7.39969C12.8253 7.24139 12.4157 7.15991 12.002 7.15991C11.1666 7.15991 10.3653 7.49179 9.7746 8.08253C9.18386 8.67327 8.85199 9.47448 8.85199 10.3099C8.85199 11.1453 9.18386 11.9466 9.7746 12.5373C10.3653 13.128 11.1666 13.4599 12.002 13.4599Z" fill="#5C5CFF"/>
</svg>
