<svg width="19" height="19" viewBox="0 0 19 19" fill="none" xmlns="http://www.w3.org/2000/svg">
<path d="M3.16671 7.12523H4.75004V2.37523H6.33337L9.04087 7.12523H12.6667V2.37523H14.25V7.12523H15.8334V8.70856H14.25V10.2919H15.8334V11.8752H14.25V16.6252H12.6667L9.95128 11.8752H6.33337V16.6252H4.75004V11.8752H3.16671V10.2919H4.75004V8.70856H3.16671V7.12523ZM6.33337 7.12523H7.22795L6.33337 5.56565V7.12523ZM6.33337 8.70856V10.2919H9.04087L8.13837 8.70856H6.33337ZM12.6667 13.4586V11.8752H11.7563L12.6667 13.4586ZM9.94337 8.70856L10.8538 10.2919H12.6667V8.70856H9.94337Z" fill="#5C5CFF"/>
</svg>
