<svg width="20" height="20" viewBox="0 0 20 20" fill="none" xmlns="http://www.w3.org/2000/svg">
<path d="M13.3332 15.8332H6.66656V17.0832C6.66656 17.4147 6.53487 17.7326 6.30045 17.9671C6.06603 18.2015 5.74808 18.3332 5.41657 18.3332H4.58324C4.25172 18.3332 3.93378 18.2015 3.69936 17.9671C3.46494 17.7326 3.33324 17.4147 3.33324 17.0832V15.6915C2.84568 15.519 2.4236 15.1996 2.12511 14.7772C1.82663 14.3549 1.66643 13.8504 1.66658 13.3332V10.8332C1.66658 10.3165 1.82325 9.83655 2.09158 9.43822L2.99658 3.77157C3.09056 3.18423 3.39088 2.64964 3.84359 2.26382C4.29631 1.87801 4.87175 1.66625 5.46657 1.66658H14.5332C15.1276 1.66707 15.7023 1.87931 16.1543 2.26522C16.6064 2.65113 16.9061 3.18548 16.9998 3.77241L17.9023 9.43071C18.174 9.83071 18.3323 10.314 18.3323 10.8332V13.3332C18.3325 13.8504 18.1723 14.3549 17.8738 14.7772C17.5753 15.1996 17.1532 15.519 16.6657 15.6915V17.0832C16.6657 17.4147 16.534 17.7326 16.2996 17.9671C16.0652 18.2015 15.7472 18.3332 15.4157 18.3332H14.5824C14.2508 18.3332 13.9329 18.2015 13.6985 17.9671C13.4641 17.7326 13.3324 17.4147 13.3324 17.0832V15.8332H13.3332ZM4.16657 14.1665H15.8332C16.0542 14.1665 16.2662 14.0787 16.4224 13.9225C16.5787 13.7662 16.6665 13.5542 16.6665 13.3332V10.8332C16.6665 10.6122 16.5787 10.4002 16.4224 10.244C16.2662 10.0877 16.0542 9.99988 15.8332 9.99988H4.16657C3.94556 9.99988 3.7336 10.0877 3.57732 10.244C3.42104 10.4002 3.33324 10.6122 3.33324 10.8332V13.3332C3.33324 13.5542 3.42104 13.7662 3.57732 13.9225C3.7336 14.0787 3.94556 14.1665 4.16657 14.1665ZM16.0415 8.34155L15.3549 4.03491C15.3236 3.83941 15.2237 3.66143 15.0732 3.53286C14.9226 3.40429 14.7312 3.33353 14.5332 3.33324H5.46573C5.26746 3.33313 5.07565 3.40372 4.92474 3.53232C4.77384 3.66093 4.67373 3.83912 4.6424 4.03491L3.95491 8.34239C4.0253 8.33638 4.09592 8.33332 4.16657 8.33322H15.8332C15.9032 8.33322 15.9732 8.33572 16.0415 8.34155ZM14.5832 11.6665C14.4727 11.6665 14.3667 11.7104 14.2886 11.7886C14.2104 11.8667 14.1665 11.9727 14.1665 12.0832C14.1665 12.1937 14.2104 12.2997 14.2886 12.3778C14.3667 12.456 14.4727 12.4999 14.5832 12.4999C14.6937 12.4999 14.7997 12.456 14.8778 12.3778C14.956 12.2997 14.9999 12.1937 14.9999 12.0832C14.9999 11.9727 14.956 11.8667 14.8778 11.7886C14.7997 11.7104 14.6937 11.6665 14.5832 11.6665ZM14.5832 13.3332C14.419 13.3332 14.2565 13.3009 14.1048 13.238C13.9532 13.1752 13.8154 13.0832 13.6993 12.9671C13.5832 12.851 13.4912 12.7132 13.4283 12.5616C13.3655 12.4099 13.3332 12.2474 13.3332 12.0832C13.3332 11.9191 13.3655 11.7565 13.4283 11.6049C13.4912 11.4532 13.5832 11.3154 13.6993 11.1993C13.8154 11.0833 13.9532 10.9912 14.1048 10.9284C14.2565 10.8655 14.419 10.8332 14.5832 10.8332C14.9147 10.8332 15.2327 10.9649 15.4671 11.1993C15.7015 11.4337 15.8332 11.7517 15.8332 12.0832C15.8332 12.4147 15.7015 12.7327 15.4671 12.9671C15.2327 13.2015 14.9147 13.3332 14.5832 13.3332ZM5.41657 11.6665C5.30606 11.6665 5.20008 11.7104 5.12194 11.7886C5.0438 11.8667 4.9999 11.9727 4.9999 12.0832C4.9999 12.1937 5.0438 12.2997 5.12194 12.3778C5.20008 12.456 5.30606 12.4999 5.41657 12.4999C5.52707 12.4999 5.63305 12.456 5.71119 12.3778C5.78933 12.2997 5.83323 12.1937 5.83323 12.0832C5.83323 11.9727 5.78933 11.8667 5.71119 11.7886C5.63305 11.7104 5.52707 11.6665 5.41657 11.6665ZM5.41657 13.3332C5.25241 13.3332 5.08987 13.3009 4.93821 13.238C4.78656 13.1752 4.64876 13.0832 4.53269 12.9671C4.41661 12.851 4.32454 12.7132 4.26172 12.5616C4.1989 12.4099 4.16657 12.2474 4.16657 12.0832C4.16657 11.9191 4.1989 11.7565 4.26172 11.6049C4.32454 11.4532 4.41661 11.3154 4.53269 11.1993C4.64876 11.0833 4.78656 10.9912 4.93821 10.9284C5.08987 10.8655 5.25241 10.8332 5.41657 10.8332C5.74808 10.8332 6.06603 10.9649 6.30045 11.1993C6.53487 11.4337 6.66656 11.7517 6.66656 12.0832C6.66656 12.4147 6.53487 12.7327 6.30045 12.9671C6.06603 13.2015 5.74808 13.3332 5.41657 13.3332ZM6.00323 4.2449C6.22424 4.2449 6.4362 4.3327 6.59248 4.48898C6.74876 4.64526 6.83656 4.85722 6.83656 5.07823V6.74489C6.83656 6.96591 6.74876 7.17787 6.59248 7.33415C6.4362 7.49043 6.22424 7.57822 6.00323 7.57822C5.78222 7.57822 5.57026 7.49043 5.41398 7.33415C5.2577 7.17787 5.1699 6.96591 5.1699 6.74489V5.07823C5.1699 4.85722 5.2577 4.64526 5.41398 4.48898C5.57026 4.3327 5.78222 4.2449 6.00323 4.2449Z" fill="black"/>
</svg>
