<svg width="30" height="30" viewBox="0 0 30 30" fill="none" xmlns="http://www.w3.org/2000/svg">
<path d="M26.25 9.1V6.25C26.25 4.875 25.125 3.75 23.75 3.75H6.25C5.58696 3.75 4.95107 4.01339 4.48223 4.48223C4.01339 4.95107 3.75 5.58696 3.75 6.25V23.75C3.75 24.413 4.01339 25.0489 4.48223 25.5178C4.95107 25.9866 5.58696 26.25 6.25 26.25H23.75C25.125 26.25 26.25 25.125 26.25 23.75V20.9C26.6278 20.6819 26.942 20.3686 27.1613 19.9915C27.3806 19.6143 27.4974 19.1863 27.5 18.75V11.25C27.4974 10.8137 27.3806 10.3857 27.1613 10.0085C26.942 9.63136 26.6278 9.31814 26.25 9.1ZM25 11.25V18.75H16.25V11.25H25ZM6.25 23.75V6.25H23.75V8.75H16.25C14.875 8.75 13.75 9.875 13.75 11.25V18.75C13.75 20.125 14.875 21.25 16.25 21.25H23.75V23.75H6.25Z" fill="black"/>
<path d="M20 16.875C21.0355 16.875 21.875 16.0355 21.875 15C21.875 13.9645 21.0355 13.125 20 13.125C18.9645 13.125 18.125 13.9645 18.125 15C18.125 16.0355 18.9645 16.875 20 16.875Z" fill="black"/>
</svg>
