<svg width="25" height="25" viewBox="0 0 25 25" fill="none" xmlns="http://www.w3.org/2000/svg">
<path d="M7.37498 16.7687C6.99998 16.7687 6.62498 16.675 6.28123 16.477C5.94273 16.2898 5.66072 16.0151 5.46466 15.6816C5.26859 15.3481 5.16567 14.9681 5.16665 14.5812V10.8625C5.16665 10.5916 4.98956 10.1333 4.77081 9.87288L2.14581 7.11247C1.65623 6.6333 1.30206 5.79997 1.30206 5.16455V3.54997C1.30206 2.28955 2.2604 1.28955 3.48956 1.28955H12.7604C13.9687 1.28955 14.9479 2.26872 14.9479 3.47705V5.01872C14.9479 5.83122 14.4791 6.72705 14.0208 7.18538L10.9687 9.8833C10.7291 10.0812 10.5312 10.5604 10.5312 10.9145V13.9354C10.5312 14.6541 10.0937 15.4562 9.52081 15.8L8.56248 16.425C8.18748 16.6541 7.78123 16.7687 7.37498 16.7687ZM3.48956 2.86247C3.1354 2.86247 2.86456 3.16455 2.86456 3.56038V5.17497C2.86456 5.35205 3.04165 5.79997 3.27081 6.02913L5.95831 8.85205C6.35415 9.34163 6.73956 10.1437 6.73956 10.8625V14.5812C6.73956 14.8937 6.93748 15.05 7.06248 15.1125C7.22915 15.2062 7.49998 15.2583 7.72915 15.1125L8.6979 14.4875C8.8229 14.4146 8.96873 14.1229 8.96873 13.9458V10.925C8.96873 10.1021 9.37498 9.1958 9.9479 8.70622L12.9479 6.04997C13.1354 5.86247 13.3854 5.35205 13.3854 5.01872V3.47705C13.3854 3.1333 13.1041 2.85205 12.7604 2.85205H3.48956V2.86247Z" fill="white"/>
<path d="M15.625 23.6969H9.37498C3.71873 23.6969 1.30206 21.2802 1.30206 15.624V12.499C1.30206 12.0719 1.65623 11.7177 2.08331 11.7177C2.5104 11.7177 2.86456 12.0719 2.86456 12.499V15.624C2.86456 20.4261 4.5729 22.1344 9.37498 22.1344H15.625C20.4271 22.1344 22.1354 20.4261 22.1354 15.624V9.37397C22.1354 6.35314 21.4271 4.60314 19.8333 3.69689C19.6666 3.60314 19.1146 3.35314 17.5312 3.10314C17.4295 3.08773 17.3319 3.05218 17.2442 2.99857C17.1564 2.94497 17.0802 2.87438 17.02 2.79095C16.9599 2.70752 16.917 2.61292 16.8939 2.5127C16.8708 2.41248 16.8679 2.30865 16.8854 2.2073C16.9583 1.78022 17.3646 1.48855 17.7812 1.56147C19.1458 1.78022 20.0729 2.03022 20.6041 2.3323C22.7083 3.53022 23.6979 5.7698 23.6979 9.37397V15.624C23.6979 21.2802 21.2812 23.6969 15.625 23.6969Z" fill="white"/>
<path d="M18.75 14.323H13.5416C13.1146 14.323 12.7604 13.9688 12.7604 13.5417C12.7604 13.1147 13.1146 12.7605 13.5416 12.7605H18.75C19.1771 12.7605 19.5312 13.1147 19.5312 13.5417C19.5312 13.9688 19.1771 14.323 18.75 14.323ZM18.75 18.4897H11.4583C11.0312 18.4897 10.6771 18.1355 10.6771 17.7084C10.6771 17.2813 11.0312 16.9272 11.4583 16.9272H18.75C19.1771 16.9272 19.5312 17.2813 19.5312 17.7084C19.5312 18.1355 19.1771 18.4897 18.75 18.4897Z" fill="white"/>
</svg>
