<svg width="30" height="30" viewBox="0 0 30 30" fill="none" xmlns="http://www.w3.org/2000/svg">
<path d="M25 7.1875H17.5C16.9875 7.1875 16.5625 6.7625 16.5625 6.25C16.5625 5.7375 16.9875 5.3125 17.5 5.3125H25C25.5125 5.3125 25.9375 5.7375 25.9375 6.25C25.9375 6.7625 25.5125 7.1875 25 7.1875ZM21.25 10.9375H17.5C16.9875 10.9375 16.5625 10.5125 16.5625 10C16.5625 9.4875 16.9875 9.0625 17.5 9.0625H21.25C21.7625 9.0625 22.1875 9.4875 22.1875 10C22.1875 10.5125 21.7625 10.9375 21.25 10.9375Z" fill="white"/>
<path d="M14.375 27.1875C7.3125 27.1875 1.5625 21.4375 1.5625 14.375C1.5625 7.3125 7.3125 1.5625 14.375 1.5625C14.8875 1.5625 15.3125 1.9875 15.3125 2.5C15.3125 3.0125 14.8875 3.4375 14.375 3.4375C8.3375 3.4375 3.4375 8.35 3.4375 14.375C3.4375 20.4 8.3375 25.3125 14.375 25.3125C20.4125 25.3125 25.3125 20.4 25.3125 14.375C25.3125 13.8625 25.7375 13.4375 26.25 13.4375C26.7625 13.4375 27.1875 13.8625 27.1875 14.375C27.1875 21.4375 21.4375 27.1875 14.375 27.1875ZM27.5 28.4387C27.2625 28.4387 27.025 28.3512 26.8375 28.1637L24.3375 25.6637C24.1631 25.4873 24.0654 25.2493 24.0654 25.0012C24.0654 24.7532 24.1631 24.5152 24.3375 24.3388C24.7 23.9763 25.3 23.9763 25.6625 24.3388L28.1625 26.8388C28.525 27.2013 28.525 27.8013 28.1625 28.1637C27.975 28.3512 27.7375 28.4387 27.5 28.4387Z" fill="white"/>
</svg>
