<svg width="30" height="30" viewBox="0 0 30 30" fill="none" xmlns="http://www.w3.org/2000/svg">
<path d="M15 18.6C13.8625 18.6 12.9375 17.675 12.9375 16.5375V13.45C12.9375 12.3125 13.8625 11.3875 15 11.3875C16.1375 11.3875 17.0625 12.3125 17.0625 13.45V16.5375C17.0625 17.675 16.1375 18.6 15 18.6Z" stroke="#001B33" stroke-width="1.5" stroke-linecap="round"/>
<path d="M21.225 16.8376C20.975 20.0626 18.275 22.5876 15 22.5876C11.55 22.5876 8.75 19.7876 8.75 16.3376V13.6626C8.75 10.2126 11.55 7.4126 15 7.4126C18.2375 7.4126 20.9 9.8751 21.2125 13.0251" stroke="#001B33" stroke-width="1.5" stroke-linecap="round"/>
<path d="M18.75 2.5H21.25C25 2.5 27.5 5 27.5 8.75V11.25M2.5 11.25V8.75C2.5 5 5 2.5 8.75 2.5H11.25M18.75 27.5H21.25C25 27.5 27.5 25 27.5 21.25V18.75M2.5 18.75V21.25C2.5 25 5 27.5 8.75 27.5H11.25" stroke="#001B33" stroke-width="1.5" stroke-miterlimit="10" stroke-linecap="round" stroke-linejoin="round"/>
</svg>
