<svg width="35" height="35" viewBox="0 0 35 35" fill="none" xmlns="http://www.w3.org/2000/svg">
<path d="M25.9438 33.1771H9.05625C5.06042 33.1771 1.82292 29.925 1.82292 25.9292V15.123C1.82292 13.1396 3.04792 10.6459 4.62292 9.42088L12.4833 3.29588C14.8458 1.45838 18.6229 1.37088 21.0729 3.09171L30.0854 9.40629C31.8208 10.6167 33.1771 13.2125 33.1771 15.3271V25.9438C33.1771 29.925 29.9396 33.1771 25.9438 33.1771ZM13.825 5.01671L5.96459 11.1417C4.92917 11.9584 4.01042 13.8105 4.01042 15.123V25.9292C4.01042 27.2688 4.54156 28.5537 5.48742 29.5023C6.43328 30.4509 7.71668 30.9858 9.05625 30.9896H25.9438C28.7292 30.9896 30.9896 28.7292 30.9896 25.9438V15.3271C30.9896 13.9271 29.9833 11.9875 28.8313 11.2L19.8188 4.88546C18.1563 3.71879 15.4146 3.77713 13.825 5.01671Z" fill="#5C5CFF"/>
<path d="M17.5 27.3438C16.9021 27.3438 16.4062 26.8479 16.4062 26.25V21.875C16.4062 21.2771 16.9021 20.7812 17.5 20.7812C18.0979 20.7812 18.5938 21.2771 18.5938 21.875V26.25C18.5938 26.8479 18.0979 27.3438 17.5 27.3438Z" fill="#5C5CFF"/>
</svg>
