<svg width="25" height="25" viewBox="0 0 25 25" fill="none" xmlns="http://www.w3.org/2000/svg">
<path d="M6.24999 22.9167C5.67707 22.9167 5.1868 22.7128 4.77916 22.3052C4.37082 21.8969 4.16666 21.4062 4.16666 20.8333V10.4167C4.16666 9.84375 4.37082 9.35312 4.77916 8.94479C5.1868 8.53715 5.67707 8.33333 6.24999 8.33333H7.29166V6.25C7.29166 4.80903 7.79964 3.58055 8.81562 2.56458C9.83089 1.5493 11.059 1.04166 12.5 1.04166C13.941 1.04166 15.1694 1.5493 16.1854 2.56458C17.2007 3.58055 17.7083 4.80903 17.7083 6.25V8.33333H18.75C19.3229 8.33333 19.8135 8.53715 20.2219 8.94479C20.6295 9.35312 20.8333 9.84375 20.8333 10.4167V20.8333C20.8333 21.4062 20.6295 21.8969 20.2219 22.3052C19.8135 22.7128 19.3229 22.9167 18.75 22.9167H6.24999ZM6.24999 20.8333H18.75V10.4167H6.24999V20.8333ZM12.5 17.7083C13.0729 17.7083 13.5635 17.5045 13.9719 17.0969C14.3795 16.6885 14.5833 16.1979 14.5833 15.625C14.5833 15.0521 14.3795 14.5615 13.9719 14.1531C13.5635 13.7455 13.0729 13.5417 12.5 13.5417C11.9271 13.5417 11.4368 13.7455 11.0292 14.1531C10.6208 14.5615 10.4167 15.0521 10.4167 15.625C10.4167 16.1979 10.6208 16.6885 11.0292 17.0969C11.4368 17.5045 11.9271 17.7083 12.5 17.7083ZM9.37499 8.33333H15.625V6.25C15.625 5.38194 15.3212 4.64409 14.7135 4.03646C14.1059 3.42882 13.368 3.125 12.5 3.125C11.6319 3.125 10.8941 3.42882 10.2864 4.03646C9.67881 4.64409 9.37499 5.38194 9.37499 6.25V8.33333ZM6.24999 20.8333V10.4167V20.8333Z" fill="#505050"/>
</svg>
