<svg width="25" height="25" viewBox="0 0 25 25" fill="none" xmlns="http://www.w3.org/2000/svg">
<path d="M14.5833 9.37492H10.4166C10.1404 9.37492 9.87543 9.48467 9.68008 9.68002C9.48473 9.87537 9.37498 10.1403 9.37498 10.4166V14.5833C9.37498 14.8595 9.48473 15.1245 9.68008 15.3198C9.87543 15.5152 10.1404 15.6249 10.4166 15.6249H14.5833C14.8596 15.6249 15.1245 15.5152 15.3199 15.3198C15.5152 15.1245 15.625 14.8595 15.625 14.5833V10.4166C15.625 10.1403 15.5152 9.87537 15.3199 9.68002C15.1245 9.48467 14.8596 9.37492 14.5833 9.37492ZM13.5416 13.5416H11.4583V11.4583H13.5416V13.5416ZM21.875 13.5416C22.1512 13.5416 22.4162 13.4318 22.6115 13.2365C22.8069 13.0411 22.9166 12.7762 22.9166 12.4999C22.9166 12.2237 22.8069 11.9587 22.6115 11.7633C22.4162 11.568 22.1512 11.4583 21.875 11.4583H19.7916V9.37492H21.875C22.1512 9.37492 22.4162 9.26517 22.6115 9.06982C22.8069 8.87447 22.9166 8.60952 22.9166 8.33325C22.9166 8.05698 22.8069 7.79203 22.6115 7.59668C22.4162 7.40133 22.1512 7.29158 21.875 7.29158H19.6041C19.4486 6.85471 19.1978 6.45793 18.8699 6.13002C18.542 5.80211 18.1452 5.55129 17.7083 5.39575V3.12492C17.7083 2.84865 17.5986 2.5837 17.4032 2.38835C17.2079 2.193 16.9429 2.08325 16.6666 2.08325C16.3904 2.08325 16.1254 2.193 15.9301 2.38835C15.7347 2.5837 15.625 2.84865 15.625 3.12492V5.20825H13.5416V3.12492C13.5416 2.84865 13.4319 2.5837 13.2365 2.38835C13.0412 2.193 12.7762 2.08325 12.5 2.08325C12.2237 2.08325 11.9588 2.193 11.7634 2.38835C11.5681 2.5837 11.4583 2.84865 11.4583 3.12492V5.20825H9.37498V3.12492C9.37498 2.84865 9.26523 2.5837 9.06988 2.38835C8.87453 2.193 8.60958 2.08325 8.33331 2.08325C8.05705 2.08325 7.79209 2.193 7.59674 2.38835C7.40139 2.5837 7.29165 2.84865 7.29165 3.12492V5.39575C6.85477 5.55129 6.45799 5.80211 6.13008 6.13002C5.80217 6.45793 5.55135 6.85471 5.39581 7.29158H3.12498C2.84871 7.29158 2.58376 7.40133 2.38841 7.59668C2.19306 7.79203 2.08331 8.05698 2.08331 8.33325C2.08331 8.60952 2.19306 8.87447 2.38841 9.06982C2.58376 9.26517 2.84871 9.37492 3.12498 9.37492H5.20831V11.4583H3.12498C2.84871 11.4583 2.58376 11.568 2.38841 11.7633C2.19306 11.9587 2.08331 12.2237 2.08331 12.4999C2.08331 12.7762 2.19306 13.0411 2.38841 13.2365C2.58376 13.4318 2.84871 13.5416 3.12498 13.5416H5.20831V15.6249H3.12498C2.84871 15.6249 2.58376 15.7347 2.38841 15.93C2.19306 16.1254 2.08331 16.3903 2.08331 16.6666C2.08331 16.9429 2.19306 17.2078 2.38841 17.4032C2.58376 17.5985 2.84871 17.7083 3.12498 17.7083H5.39581C5.55135 18.1451 5.80217 18.5419 6.13008 18.8698C6.45799 19.1977 6.85477 19.4485 7.29165 19.6041V21.8749C7.29165 22.1512 7.40139 22.4161 7.59674 22.6115C7.79209 22.8068 8.05705 22.9166 8.33331 22.9166C8.60958 22.9166 8.87453 22.8068 9.06988 22.6115C9.26523 22.4161 9.37498 22.1512 9.37498 21.8749V19.7916H11.4583V21.8749C11.4583 22.1512 11.5681 22.4161 11.7634 22.6115C11.9588 22.8068 12.2237 22.9166 12.5 22.9166C12.7762 22.9166 13.0412 22.8068 13.2365 22.6115C13.4319 22.4161 13.5416 22.1512 13.5416 21.8749V19.7916H15.625V21.8749C15.625 22.1512 15.7347 22.4161 15.9301 22.6115C16.1254 22.8068 16.3904 22.9166 16.6666 22.9166C16.9429 22.9166 17.2079 22.8068 17.4032 22.6115C17.5986 22.4161 17.7083 22.1512 17.7083 21.8749V19.6041C18.1452 19.4485 18.542 19.1977 18.8699 18.8698C19.1978 18.5419 19.4486 18.1451 19.6041 17.7083H21.875C22.1512 17.7083 22.4162 17.5985 22.6115 17.4032C22.8069 17.2078 22.9166 16.9429 22.9166 16.6666C22.9166 16.3903 22.8069 16.1254 22.6115 15.93C22.4162 15.7347 22.1512 15.6249 21.875 15.6249H19.7916V13.5416H21.875ZM17.7083 16.6666C17.7083 16.9429 17.5986 17.2078 17.4032 17.4032C17.2079 17.5985 16.9429 17.7083 16.6666 17.7083H8.33331C8.05705 17.7083 7.79209 17.5985 7.59674 17.4032C7.40139 17.2078 7.29165 16.9429 7.29165 16.6666V8.33325C7.29165 8.05698 7.40139 7.79203 7.59674 7.59668C7.79209 7.40133 8.05705 7.29158 8.33331 7.29158H16.6666C16.9429 7.29158 17.2079 7.40133 17.4032 7.59668C17.5986 7.79203 17.7083 8.05698 17.7083 8.33325V16.6666Z" fill="#737373"/>
</svg>
