<svg width="20" height="20" viewBox="0 0 20 20" fill="none" xmlns="http://www.w3.org/2000/svg">
<path d="M8.75 6.66675H11.25M5.63333 18.3334H14.3667C16.6667 18.3334 17.5833 16.9251 17.6917 15.2084L18.125 8.32508C18.152 7.89827 18.0912 7.47046 17.9463 7.06809C17.8014 6.66572 17.5756 6.29733 17.2827 5.9857C16.9898 5.67408 16.6361 5.42583 16.2435 5.2563C15.8509 5.08677 15.4277 4.99957 15 5.00008C14.4917 5.00008 14.025 4.70841 13.7917 4.25841L13.1917 3.05008C12.8083 2.29175 11.8083 1.66675 10.9583 1.66675H9.05C8.19166 1.66675 7.19166 2.29175 6.80833 3.05008L6.20833 4.25841C5.975 4.70841 5.50833 5.00008 5 5.00008C3.19166 5.00008 1.75833 6.52508 1.875 8.32508L2.30833 15.2084C2.40833 16.9251 3.33333 18.3334 5.63333 18.3334Z" stroke="#5C5CFF" stroke-width="1.5" stroke-linecap="round" stroke-linejoin="round"/>
<path d="M10 14.9999C11.4917 14.9999 12.7084 13.7833 12.7084 12.2916C12.7084 10.7999 11.4917 9.58325 10 9.58325C8.50835 9.58325 7.29169 10.7999 7.29169 12.2916C7.29169 13.7833 8.50835 14.9999 10 14.9999Z" stroke="#5C5CFF" stroke-width="1.5" stroke-linecap="round" stroke-linejoin="round"/>
</svg>
