<svg width="25" height="25" viewBox="0 0 25 25" fill="none" xmlns="http://www.w3.org/2000/svg">
<path d="M5.39067 16.6667H20.8334V8.22917C21.2327 8.14236 21.6059 8.025 21.9532 7.87708C22.3004 7.72986 22.6216 7.53472 22.9167 7.29167V16.6667C22.9167 17.2396 22.7129 17.7302 22.3052 18.1385C21.8969 18.5462 21.4063 18.75 20.8334 18.75H6.25004L2.08337 22.9167V4.16667C2.08337 3.59375 2.28754 3.10312 2.69587 2.69479C3.10351 2.28715 3.59379 2.08333 4.16671 2.08333H14.6875C14.6181 2.43056 14.5834 2.77778 14.5834 3.125C14.5834 3.47222 14.6181 3.81944 14.6875 4.16667H4.16671V17.8906L5.39067 16.6667ZM4.16671 4.16667V16.6667V4.16667ZM19.7917 6.25C18.9237 6.25 18.1858 5.94618 17.5782 5.33854C16.9705 4.7309 16.6667 3.99306 16.6667 3.125C16.6667 2.25694 16.9705 1.5191 17.5782 0.911458C18.1858 0.303819 18.9237 0 19.7917 0C20.6598 0 21.3976 0.303819 22.0052 0.911458C22.6129 1.5191 22.9167 2.25694 22.9167 3.125C22.9167 3.99306 22.6129 4.7309 22.0052 5.33854C21.3976 5.94618 20.6598 6.25 19.7917 6.25Z" fill="white"/>
</svg>
