<svg width="25" height="25" viewBox="0 0 25 25" fill="none" xmlns="http://www.w3.org/2000/svg">
<path d="M9.37507 16.8437L5.76049 13.2292C5.56572 13.0344 5.30156 12.925 5.02611 12.925C4.75067 12.925 4.48651 13.0344 4.29174 13.2292C4.09697 13.4239 3.98755 13.6881 3.98755 13.9635C3.98755 14.0999 4.01441 14.235 4.0666 14.361C4.1188 14.487 4.1953 14.6015 4.29174 14.6979L8.6459 19.0521C9.05215 19.4583 9.7084 19.4583 10.1147 19.0521L21.1355 8.03124C21.3303 7.83647 21.4397 7.57231 21.4397 7.29686C21.4397 7.02142 21.3303 6.75726 21.1355 6.56249C20.9407 6.36772 20.6766 6.2583 20.4011 6.2583C20.1257 6.2583 19.8615 6.36772 19.6667 6.56249L9.37507 16.8437Z" fill="#8F8F8F"/>
</svg>
