<svg width="35" height="35" viewBox="0 0 35 35" fill="none" xmlns="http://www.w3.org/2000/svg">
<path d="M23.6979 15.3125L20.0521 18.9583L21.5833 20.4896L22.5312 19.5417C22.3854 20.8299 21.8385 21.9056 20.8906 22.769C19.9427 23.6313 18.8125 24.0625 17.5 24.0625C17.1597 24.0625 16.8437 24.0324 16.5521 23.9721C16.2604 23.9108 15.9687 23.8194 15.6771 23.6979L14.0729 25.3021C14.5833 25.5938 15.1244 25.8247 15.696 25.9948C16.2667 26.1649 16.868 26.25 17.5 26.25C19.4444 26.25 21.103 25.5938 22.4758 24.2812C23.8496 22.9688 24.5972 21.3646 24.7187 19.4688L25.8125 20.4896L27.3437 18.9583L23.6979 15.3125ZM11.3021 22.6042L14.9479 18.9583L13.4167 17.4271L12.4687 18.375C12.6146 17.0868 13.1614 16.011 14.1094 15.1477C15.0573 14.2853 16.1875 13.8542 17.5 13.8542C17.8403 13.8542 18.1562 13.8843 18.4479 13.9446C18.7396 14.0058 19.0312 14.0972 19.3229 14.2188L20.9271 12.6146C20.4167 12.3229 19.8761 12.092 19.3054 11.9219C18.7337 11.7517 18.1319 11.6667 17.5 11.6667C15.5555 11.6667 13.8969 12.3229 12.5242 13.6354C11.1504 14.9479 10.4028 16.5521 10.2812 18.4479L9.18749 17.4271L7.65624 18.9583L11.3021 22.6042ZM5.83332 30.625C5.03124 30.625 4.34485 30.3397 3.77416 29.769C3.20249 29.1973 2.91666 28.5104 2.91666 27.7083V10.2083C2.91666 9.40625 3.20249 8.71986 3.77416 8.14917C4.34485 7.5775 5.03124 7.29167 5.83332 7.29167H10.4271L13.125 4.375H21.875L24.5729 7.29167H29.1667C29.9687 7.29167 30.6556 7.5775 31.2273 8.14917C31.798 8.71986 32.0833 9.40625 32.0833 10.2083V27.7083C32.0833 28.5104 31.798 29.1973 31.2273 29.769C30.6556 30.3397 29.9687 30.625 29.1667 30.625H5.83332ZM29.1667 27.7083V10.2083H23.2604L20.5989 7.29167H14.401L11.7396 10.2083H5.83332V27.7083H29.1667Z" fill="white"/>
</svg>
