<svg width="25" height="25" viewBox="0 0 25 25" fill="none" xmlns="http://www.w3.org/2000/svg">
<path d="M20.7812 21.875C18.5417 21.875 16.3587 21.3757 14.2323 20.3771C12.1052 19.3792 10.2215 18.0597 8.58125 16.4187C6.94028 14.7785 5.62083 12.8948 4.62292 10.7677C3.62431 8.64132 3.125 6.45833 3.125 4.21875C3.125 3.90625 3.22917 3.64583 3.4375 3.4375C3.64583 3.22917 3.90625 3.125 4.21875 3.125H8.4375C8.68056 3.125 8.89757 3.20312 9.08854 3.35937C9.27951 3.51562 9.39236 3.71528 9.42708 3.95833L10.1042 7.60417C10.1389 7.84722 10.1347 8.0684 10.0917 8.26771C10.0479 8.46771 9.94792 8.64583 9.79167 8.80208L7.26562 11.3542C7.99479 12.6042 8.91076 13.776 10.0135 14.8698C11.1156 15.9635 12.3264 16.9097 13.6458 17.7083L16.0937 15.2604C16.25 15.1042 16.4542 14.9868 16.7062 14.9083C16.9576 14.8306 17.2049 14.809 17.4479 14.8438L21.0417 15.5729C21.2847 15.625 21.4844 15.742 21.6406 15.924C21.7969 16.1066 21.875 16.3194 21.875 16.5625V20.7812C21.875 21.0938 21.7708 21.3542 21.5625 21.5625C21.3542 21.7708 21.0938 21.875 20.7812 21.875ZM6.27604 9.375L7.99479 7.65625L7.55208 5.20833H5.23438C5.32118 5.92014 5.44271 6.62326 5.59896 7.31771C5.75521 8.01215 5.9809 8.69792 6.27604 9.375ZM15.599 18.6979C16.276 18.9931 16.9663 19.2274 17.6698 19.401C18.3726 19.5747 19.0799 19.6875 19.7917 19.7396V17.4479L17.3437 16.9531L15.599 18.6979Z" fill="white"/>
</svg>
