<svg width="30" height="30" viewBox="0 0 30 30" fill="none" xmlns="http://www.w3.org/2000/svg">
<path opacity="0.4" d="M25.7763 10.5625C24.4638 4.7875 19.4263 2.1875 15.0013 2.1875H14.9888C10.5763 2.1875 5.52628 4.775 4.21378 10.55C2.75128 17 6.70128 22.4625 10.2763 25.9C11.5434 27.1265 13.2378 27.8123 15.0013 27.8125C16.7013 27.8125 18.4013 27.175 19.7138 25.9C23.2888 22.4625 27.2388 17.0125 25.7763 10.5625Z" fill="black"/>
<path d="M15.0025 16.8252C15.5196 16.8252 16.0316 16.7233 16.5093 16.5255C16.987 16.3276 17.4211 16.0376 17.7867 15.6719C18.1524 15.3063 18.4424 14.8722 18.6403 14.3945C18.8382 13.9168 18.94 13.4048 18.94 12.8877C18.94 12.3706 18.8382 11.8586 18.6403 11.3809C18.4424 10.9032 18.1524 10.4691 17.7867 10.1035C17.4211 9.73783 16.987 9.4478 16.5093 9.24992C16.0316 9.05204 15.5196 8.9502 15.0025 8.9502C13.9582 8.9502 12.9567 9.36504 12.2183 10.1035C11.4798 10.8419 11.065 11.8434 11.065 12.8877C11.065 13.932 11.4798 14.9335 12.2183 15.6719C12.9567 16.4104 13.9582 16.8252 15.0025 16.8252Z" fill="black"/>
</svg>
