<svg width="30" height="30" viewBox="0 0 30 30" fill="none" xmlns="http://www.w3.org/2000/svg">
<path d="M15 2.8125C12.5895 2.8125 10.2332 3.52728 8.22899 4.86646C6.22477 6.20564 4.66267 8.10907 3.74022 10.336C2.81778 12.563 2.57643 15.0135 3.04668 17.3777C3.51694 19.7418 4.67769 21.9134 6.38214 23.6179C8.08659 25.3223 10.2582 26.4831 12.6223 26.9533C14.9865 27.4236 17.437 27.1822 19.664 26.2598C21.8909 25.3373 23.7944 23.7752 25.1335 21.771C26.4727 19.7668 27.1875 17.4105 27.1875 15C27.1813 11.7696 25.8953 8.67324 23.611 6.38898C21.3268 4.10472 18.2304 2.81869 15 2.8125ZM15 25.3125C12.9604 25.3125 10.9666 24.7077 9.27069 23.5745C7.57481 22.4414 6.25303 20.8308 5.4725 18.9464C4.69197 17.0621 4.48775 14.9886 4.88566 12.9881C5.28357 10.9877 6.26574 9.15019 7.70797 7.70796C9.1502 6.26573 10.9877 5.28356 12.9881 4.88565C14.9886 4.48774 17.0621 4.69196 18.9464 5.47249C20.8308 6.25302 22.4414 7.5748 23.5745 9.27068C24.7077 10.9666 25.3125 12.9604 25.3125 15C25.3094 17.7341 24.2219 20.3553 22.2886 22.2886C20.3553 24.2219 17.7341 25.3094 15 25.3125ZM16.4063 15C16.4063 15.2781 16.3238 15.55 16.1693 15.7813C16.0147 16.0125 15.7951 16.1928 15.5382 16.2992C15.2812 16.4056 14.9984 16.4335 14.7257 16.3792C14.4529 16.325 14.2023 16.191 14.0056 15.9944C13.809 15.7977 13.675 15.5471 13.6208 15.2743C13.5665 15.0016 13.5944 14.7188 13.7008 14.4619C13.8072 14.2049 13.9875 13.9853 14.2187 13.8307C14.45 13.6762 14.7219 13.5938 15 13.5938C15.373 13.5938 15.7307 13.7419 15.9944 14.0056C16.2581 14.2694 16.4063 14.627 16.4063 15ZM16.4063 20.625C16.4063 20.9031 16.3238 21.175 16.1693 21.4063C16.0147 21.6375 15.7951 21.8178 15.5382 21.9242C15.2812 22.0306 14.9984 22.0585 14.7257 22.0042C14.4529 21.95 14.2023 21.816 14.0056 21.6194C13.809 21.4227 13.675 21.1721 13.6208 20.8993C13.5665 20.6266 13.5944 20.3438 13.7008 20.0869C13.8072 19.8299 13.9875 19.6103 14.2187 19.4557C14.45 19.3012 14.7219 19.2188 15 19.2188C15.373 19.2188 15.7307 19.3669 15.9944 19.6306C16.2581 19.8944 16.4063 20.252 16.4063 20.625ZM16.4063 9.375C16.4063 9.65313 16.3238 9.92501 16.1693 10.1563C16.0147 10.3875 15.7951 10.5678 15.5382 10.6742C15.2812 10.7806 14.9984 10.8085 14.7257 10.7542C14.4529 10.7 14.2023 10.566 14.0056 10.3694C13.809 10.1727 13.675 9.92213 13.6208 9.64935C13.5665 9.37656 13.5944 9.09381 13.7008 8.83685C13.8072 8.57989 13.9875 8.36027 14.2187 8.20575C14.45 8.05122 14.7219 7.96875 15 7.96875C15.373 7.96875 15.7307 8.11691 15.9944 8.38063C16.2581 8.64435 16.4063 9.00204 16.4063 9.375Z" fill="black"/>
</svg>
