<svg width="29" height="25" viewBox="0 0 29 25" fill="none" xmlns="http://www.w3.org/2000/svg">
<g clip-path="url(#clip0_737_1188)">
<path d="M25.0043 2.39966H3.5757C2.57124 2.39966 1.72488 2.73448 1.03664 3.40412C0.348395 4.07377 0.00427246 4.92942 0.00427246 5.97109V16.6854C0.00427246 17.3178 0.236787 17.8665 0.701817 18.3316C1.16685 18.7966 1.73418 19.0291 2.40383 19.0291H26.1761C26.8458 19.0291 27.4131 18.7966 27.8782 18.3316C28.3432 17.8665 28.5757 17.3178 28.5757 16.6854V5.97109C28.5757 4.92942 28.2316 4.07377 27.5433 3.40412C26.8551 2.73448 26.0087 2.39966 25.0043 2.39966ZM23.8324 16.6854V13.1139H22.6047V16.6854H21.4328V13.1139H20.261V16.6854H19.0333V13.1139H17.8614V16.6854H15.4619V13.1139C15.4619 12.2955 15.0712 11.8863 14.29 11.8863C13.5087 11.8863 13.1181 12.2955 13.1181 13.1139V16.6854H11.8904V13.1139H10.7186V16.6854H9.54668V13.1139H8.319V16.6854H7.14713V13.1139H5.97525V16.6854H4.74758V13.1139H3.5757V16.6854H2.40383V5.97109C2.40383 5.15263 2.79445 4.74341 3.5757 4.74341H25.0043C25.7855 4.74341 26.1761 5.15263 26.1761 5.97109V16.6854H23.8324ZM5.97525 5.97109H4.74758C3.96633 5.97109 3.5757 6.36171 3.5757 7.14296V10.7144C3.5757 11.4956 3.96633 11.8863 4.74758 11.8863H5.97525C6.7565 11.8863 7.14713 11.4956 7.14713 10.7144V7.14296C7.14713 6.36171 6.7565 5.97109 5.97525 5.97109ZM10.7186 5.97109H9.54668C8.72823 5.97109 8.319 6.36171 8.319 7.14296V10.7144C8.319 11.4956 8.72823 11.8863 9.54668 11.8863H10.7186C11.4998 11.8863 11.8904 11.4956 11.8904 10.7144V7.14296C11.8904 6.36171 11.4998 5.97109 10.7186 5.97109ZM19.0333 5.97109H17.8614C17.0802 5.97109 16.6895 6.36171 16.6895 7.14296V10.7144C16.6895 11.4956 17.0802 11.8863 17.8614 11.8863H19.0333C19.8517 11.8863 20.261 11.4956 20.261 10.7144V7.14296C20.261 6.36171 19.8517 5.97109 19.0333 5.97109ZM23.8324 5.97109H22.6047C21.8235 5.97109 21.4328 6.36171 21.4328 7.14296V10.7144C21.4328 11.4956 21.8235 11.8863 22.6047 11.8863H23.8324C24.6136 11.8863 25.0043 11.4956 25.0043 10.7144V7.14296C25.0043 6.36171 24.6136 5.97109 23.8324 5.97109Z" fill="#515151"/>
</g>
<defs>
<clipPath id="clip0_737_1188">
<rect width="28.58" height="25" fill="white"/>
</clipPath>
</defs>
</svg>
