<svg width="30" height="30" viewBox="0 0 30 30" fill="none" xmlns="http://www.w3.org/2000/svg">
<path d="M11.25 12.5C11.913 12.5 12.5489 12.2366 13.0178 11.7678C13.4866 11.2989 13.75 10.663 13.75 10C13.75 9.33696 13.4866 8.70107 13.0178 8.23223C12.5489 7.76339 11.913 7.5 11.25 7.5C10.587 7.5 9.95107 7.76339 9.48223 8.23223C9.01339 8.70107 8.75 9.33696 8.75 10C8.75 10.663 9.01339 11.2989 9.48223 11.7678C9.95107 12.2366 10.587 12.5 11.25 12.5Z" stroke="#505050" stroke-width="1.5" stroke-linecap="round" stroke-linejoin="round"/>
<path d="M16.25 2.5H11.25C5 2.5 2.5 5 2.5 11.25V18.75C2.5 25 5 27.5 11.25 27.5H18.75C25 27.5 27.5 25 27.5 18.75V12.5" stroke="#505050" stroke-width="1.5" stroke-linecap="round" stroke-linejoin="round"/>
<path d="M19.6875 6.25H26.5625M23.125 9.6875V2.8125" stroke="#505050" stroke-width="1.5" stroke-linecap="round"/>
<path d="M3.33752 23.6875L9.50002 19.55C10.4875 18.8875 11.9125 18.9625 12.8 19.725L13.2125 20.0875C14.1875 20.925 15.7625 20.925 16.7375 20.0875L21.9375 15.625C22.9125 14.7875 24.4875 14.7875 25.4625 15.625L27.5 17.375" stroke="#505050" stroke-width="1.5" stroke-linecap="round" stroke-linejoin="round"/>
</svg>
