<svg width="20" height="20" viewBox="0 0 20 20" fill="none" xmlns="http://www.w3.org/2000/svg">
<g clip-path="url(#clip0_0_51)">
<path d="M16.6666 5V10H3.33331M9.99998 5V15M3.33331 5V15" stroke="#333333" stroke-width="1.66667" stroke-linecap="round" stroke-linejoin="round"/>
<path d="M18.3333 3.33317C18.3333 3.7752 18.1577 4.19912 17.8452 4.51168C17.5326 4.82424 17.1087 4.99984 16.6667 4.99984C16.2246 4.99984 15.8007 4.82424 15.4881 4.51168C15.1756 4.19912 15 3.7752 15 3.33317C15 2.89114 15.1756 2.46722 15.4881 2.15466C15.8007 1.8421 16.2246 1.6665 16.6667 1.6665C17.1087 1.6665 17.5326 1.8421 17.8452 2.15466C18.1577 2.46722 18.3333 2.89114 18.3333 3.33317V3.33317ZM11.6667 3.33317C11.6667 3.7752 11.4911 4.19912 11.1785 4.51168C10.8659 4.82424 10.442 4.99984 9.99999 4.99984C9.55796 4.99984 9.13404 4.82424 8.82148 4.51168C8.50892 4.19912 8.33332 3.7752 8.33332 3.33317C8.33332 2.89114 8.50892 2.46722 8.82148 2.15466C9.13404 1.8421 9.55796 1.6665 9.99999 1.6665C10.442 1.6665 10.8659 1.8421 11.1785 2.15466C11.4911 2.46722 11.6667 2.89114 11.6667 3.33317V3.33317ZM4.99999 3.33317C4.99999 3.7752 4.8244 4.19912 4.51183 4.51168C4.19927 4.82424 3.77535 4.99984 3.33332 4.99984C2.8913 4.99984 2.46737 4.82424 2.15481 4.51168C1.84225 4.19912 1.66666 3.7752 1.66666 3.33317C1.66666 2.89114 1.84225 2.46722 2.15481 2.15466C2.46737 1.8421 2.8913 1.6665 3.33332 1.6665C3.77535 1.6665 4.19927 1.8421 4.51183 2.15466C4.8244 2.46722 4.99999 2.89114 4.99999 3.33317V3.33317ZM11.6667 16.6665C11.6667 17.1085 11.4911 17.5325 11.1785 17.845C10.8659 18.1576 10.442 18.3332 9.99999 18.3332C9.55796 18.3332 9.13404 18.1576 8.82148 17.845C8.50892 17.5325 8.33332 17.1085 8.33332 16.6665C8.33332 16.2245 8.50892 15.8006 8.82148 15.488C9.13404 15.1754 9.55796 14.9998 9.99999 14.9998C10.442 14.9998 10.8659 15.1754 11.1785 15.488C11.4911 15.8006 11.6667 16.2245 11.6667 16.6665V16.6665ZM4.99999 16.6665C4.99999 17.1085 4.8244 17.5325 4.51183 17.845C4.19927 18.1576 3.77535 18.3332 3.33332 18.3332C2.8913 18.3332 2.46737 18.1576 2.15481 17.845C1.84225 17.5325 1.66666 17.1085 1.66666 16.6665C1.66666 16.2245 1.84225 15.8006 2.15481 15.488C2.46737 15.1754 2.8913 14.9998 3.33332 14.9998C3.77535 14.9998 4.19927 15.1754 4.51183 15.488C4.8244 15.8006 4.99999 16.2245 4.99999 16.6665V16.6665ZM16.6667 18.3332C17.1087 18.3332 17.5326 18.1576 17.8452 17.845C18.1577 17.5325 18.3333 17.1085 18.3333 16.6665C18.3333 16.2245 18.1577 15.8006 17.8452 15.488C17.5326 15.1754 17.1087 14.9998 16.6667 14.9998C16.2246 14.9998 15.8007 15.1754 15.4881 15.488C15.1756 15.8006 15 16.2245 15 16.6665C15 17.1085 15.1756 17.5325 15.4881 17.845C15.8007 18.1576 16.2246 18.3332 16.6667 18.3332V18.3332Z" stroke="#333333" stroke-width="1.66667" stroke-linecap="round" stroke-linejoin="round"/>
</g>
<defs>
<clipPath id="clip0_0_51">
<rect width="20" height="20" fill="white"/>
</clipPath>
</defs>
</svg>
