<svg width="35" height="35" viewBox="0 0 35 35" fill="none" xmlns="http://www.w3.org/2000/svg">
<path d="M29.1667 9.84371C30.2303 9.84371 31.2504 9.42118 32.0025 8.66909C32.7546 7.91699 33.1771 6.89692 33.1771 5.83329C33.1771 4.76966 32.7546 3.7496 32.0025 2.9975C31.2504 2.2454 30.2303 1.82288 29.1667 1.82288C28.103 1.82288 27.083 2.2454 26.3309 2.9975C25.5788 3.7496 25.1562 4.76966 25.1562 5.83329C25.1562 6.89692 25.5788 7.91699 26.3309 8.66909C27.083 9.42118 28.103 9.84371 29.1667 9.84371Z" fill="#5C5CFF"/>
<path opacity="0.4" d="M29.1666 11.6666C25.9437 11.6666 23.3333 9.05621 23.3333 5.83329C23.3333 4.76871 23.6395 3.77704 24.15 2.91663H10.2083C6.18329 2.91663 2.91663 6.16871 2.91663 10.1791V20.3583C2.91663 24.3687 6.18329 27.6208 10.2083 27.6208H12.3958C12.7895 27.6208 13.3145 27.8833 13.5625 28.2041L15.75 31.1062C16.7125 32.3895 18.2875 32.3895 19.25 31.1062L21.4375 28.2041C21.7145 27.8395 22.152 27.6208 22.6041 27.6208H24.7916C28.8166 27.6208 32.0833 24.3687 32.0833 20.3583V10.85C31.2229 11.3604 30.2312 11.6666 29.1666 11.6666Z" fill="#5C5CFF"/>
<path d="M17.4999 17.5C16.6833 17.5 16.0416 16.8438 16.0416 16.0417C16.0416 15.2396 16.6978 14.5834 17.4999 14.5834C18.302 14.5834 18.9583 15.2396 18.9583 16.0417C18.9583 16.8438 18.3166 17.5 17.4999 17.5ZM23.3333 17.5C22.5166 17.5 21.8749 16.8438 21.8749 16.0417C21.8749 15.2396 22.5312 14.5834 23.3333 14.5834C24.1353 14.5834 24.7916 15.2396 24.7916 16.0417C24.7916 16.8438 24.1499 17.5 23.3333 17.5ZM11.6666 17.5C10.8499 17.5 10.2083 16.8438 10.2083 16.0417C10.2083 15.2396 10.8645 14.5834 11.6666 14.5834C12.4687 14.5834 13.1249 15.2396 13.1249 16.0417C13.1249 16.8438 12.4833 17.5 11.6666 17.5Z" fill="#5C5CFF"/>
</svg>
