<svg width="35" height="35" viewBox="0 0 35 35" fill="none" xmlns="http://www.w3.org/2000/svg">
<path opacity="0.4" d="M17.5 2.91675C13.6792 2.91675 10.5729 6.023 10.5729 9.84383C10.5729 13.5917 13.5042 16.6251 17.325 16.7563C17.4417 16.7417 17.5583 16.7417 17.6458 16.7563H17.7479C19.5407 16.6965 21.24 15.9418 22.4865 14.6518C23.7329 13.3618 24.4288 11.6376 24.4271 9.84383C24.4271 6.023 21.3208 2.91675 17.5 2.91675Z" fill="#5C5CFF"/>
<path d="M24.9083 20.634C20.8396 17.9215 14.2042 17.9215 10.1062 20.634C8.25417 21.8736 7.23333 23.5507 7.23333 25.3444C7.23333 27.1382 8.25417 28.8007 10.0917 30.0257C12.1333 31.3965 14.8167 32.0819 17.5 32.0819C20.1833 32.0819 22.8667 31.3965 24.9083 30.0257C26.7458 28.7861 27.7667 27.1236 27.7667 25.3152C27.7521 23.5215 26.7458 21.859 24.9083 20.634Z" fill="#5C5CFF"/>
</svg>
