<svg width="30" height="30" viewBox="0 0 30 30" fill="none" xmlns="http://www.w3.org/2000/svg">
<path d="M15.2 13.5874C15.075 13.5749 14.925 13.5749 14.7875 13.5874C13.3528 13.5387 11.9933 12.9335 10.9971 11.8999C10.0008 10.8663 9.44595 9.48549 9.45002 8.04993C9.45002 4.98743 11.925 2.49993 15 2.49993C15.728 2.48679 16.4515 2.61718 17.1291 2.88365C17.8068 3.15012 18.4253 3.54744 18.9493 4.05294C19.4734 4.55844 19.8928 5.16221 20.1835 5.82979C20.4742 6.49736 20.6306 7.21566 20.6438 7.94368C20.6569 8.67169 20.5265 9.39516 20.2601 10.0728C19.9936 10.7504 19.5963 11.3689 19.0908 11.893C18.5853 12.4171 17.9815 12.8364 17.3139 13.1272C16.6463 13.4179 15.928 13.5743 15.2 13.5874V13.5874ZM8.95002 18.1999C5.92502 20.2249 5.92502 23.5249 8.95002 25.5374C12.3875 27.8374 18.025 27.8374 21.4625 25.5374C24.4875 23.5124 24.4875 20.2124 21.4625 18.1999C18.0375 15.9124 12.4 15.9124 8.95002 18.1999V18.1999Z" stroke="black" stroke-width="1.5" stroke-linecap="round" stroke-linejoin="round"/>
</svg>
