<svg width="30" height="30" viewBox="0 0 30 30" fill="none" xmlns="http://www.w3.org/2000/svg">
<path d="M15 5C16.3261 5 17.5979 5.52678 18.5355 6.46447C19.4732 7.40215 20 8.67392 20 10C20 11.3261 19.4732 12.5979 18.5355 13.5355C17.5979 14.4732 16.3261 15 15 15C13.6739 15 12.4021 14.4732 11.4645 13.5355C10.5268 12.5979 10 11.3261 10 10C10 8.67392 10.5268 7.40215 11.4645 6.46447C12.4021 5.52678 13.6739 5 15 5ZM15 7.5C14.337 7.5 13.7011 7.76339 13.2322 8.23223C12.7634 8.70107 12.5 9.33696 12.5 10C12.5 10.663 12.7634 11.2989 13.2322 11.7678C13.7011 12.2366 14.337 12.5 15 12.5C15.663 12.5 16.2989 12.2366 16.7678 11.7678C17.2366 11.2989 17.5 10.663 17.5 10C17.5 9.33696 17.2366 8.70107 16.7678 8.23223C16.2989 7.76339 15.663 7.5 15 7.5ZM15 16.25C18.3375 16.25 25 17.9125 25 21.25V25H5V21.25C5 17.9125 11.6625 16.25 15 16.25ZM15 18.625C11.2875 18.625 7.375 20.45 7.375 21.25V22.625H22.625V21.25C22.625 20.45 18.7125 18.625 15 18.625Z" fill="#505050"/>
</svg>
