<svg width="35" height="35" viewBox="0 0 35 35" fill="none" xmlns="http://www.w3.org/2000/svg">
<path opacity="0.4" d="M17.7319 15.852C17.586 15.8374 17.411 15.8374 17.2506 15.852C15.5767 15.7952 13.9907 15.0891 12.8284 13.8832C11.6661 12.6773 11.0188 11.0664 11.0235 9.39158C11.0235 5.81866 13.911 2.91658 17.4985 2.91658C19.2139 2.88564 20.8712 3.53738 22.1061 4.72843C23.3409 5.91948 24.052 7.55228 24.0829 9.26762C24.1138 10.983 23.4621 12.6403 22.271 13.8752C21.08 15.11 19.4472 15.8211 17.7319 15.852V15.852Z" stroke="#5C5CFF" stroke-width="1.5" stroke-linecap="round" stroke-linejoin="round"/>
<path d="M10.4402 21.2333C6.91104 23.5958 6.91104 27.4458 10.4402 29.7937C14.4506 32.477 21.0277 32.477 25.0381 29.7937C28.5673 27.4312 28.5673 23.5812 25.0381 21.2333C21.0423 18.5645 14.4652 18.5645 10.4402 21.2333V21.2333Z" stroke="#5C5CFF" stroke-width="1.5" stroke-linecap="round" stroke-linejoin="round"/>
</svg>
