<svg width="25" height="25" viewBox="0 0 25 25" fill="none" xmlns="http://www.w3.org/2000/svg">
<path d="M11.4583 9.37498H13.5417V7.29165H11.4583M12.5 20.8333C7.90626 20.8333 4.16668 17.0937 4.16668 12.5C4.16668 7.90623 7.90626 4.16665 12.5 4.16665C17.0938 4.16665 20.8333 7.90623 20.8333 12.5C20.8333 17.0937 17.0938 20.8333 12.5 20.8333ZM12.5 2.08331C11.1321 2.08331 9.77753 2.35275 8.51372 2.87623C7.24992 3.39972 6.10159 4.16701 5.13431 5.13428C3.18081 7.08779 2.08334 9.73731 2.08334 12.5C2.08334 15.2627 3.18081 17.9122 5.13431 19.8657C6.10159 20.833 7.24992 21.6002 8.51372 22.1237C9.77753 22.6472 11.1321 22.9166 12.5 22.9166C15.2627 22.9166 17.9122 21.8192 19.8657 19.8657C21.8192 17.9122 22.9167 15.2627 22.9167 12.5C22.9167 11.132 22.6472 9.7775 22.1238 8.51369C21.6003 7.24989 20.833 6.10156 19.8657 5.13428C18.8984 4.16701 17.7501 3.39972 16.4863 2.87623C15.2225 2.35275 13.8679 2.08331 12.5 2.08331ZM11.4583 17.7083H13.5417V11.4583H11.4583V17.7083Z" fill="white"/>
</svg>
