<svg width="35" height="35" viewBox="0 0 35 35" fill="none" xmlns="http://www.w3.org/2000/svg">
<path d="M17.5292 4.24365C12.7021 4.24365 8.77917 8.16657 8.77917 12.9937V17.2082C8.77917 18.0978 8.40001 19.4541 7.94792 20.2124L6.27084 22.9978C5.23542 24.7187 5.95001 26.6291 7.84584 27.2707C14.1313 29.3707 20.9125 29.3707 27.1979 27.2707C28.9625 26.6874 29.7354 24.602 28.7729 22.9978L27.0958 20.2124C26.6583 19.4541 26.2792 18.0978 26.2792 17.2082V12.9937C26.2792 8.18115 22.3417 4.24365 17.5292 4.24365Z" stroke="#5C5CFF" stroke-width="1.5" stroke-miterlimit="10" stroke-linecap="round"/>
<path d="M20.2271 4.6666C18.4635 4.16434 16.5948 4.16434 14.8312 4.6666C15.2542 3.58743 16.3042 2.8291 17.5292 2.8291C18.7542 2.8291 19.8042 3.58743 20.2271 4.6666Z" stroke="#5C5CFF" stroke-width="1.5" stroke-miterlimit="10" stroke-linecap="round" stroke-linejoin="round"/>
<path d="M21.9042 27.7959C21.9042 30.2021 19.9354 32.1709 17.5292 32.1709C16.3333 32.1709 15.225 31.6751 14.4375 30.8876C13.6182 30.067 13.1568 28.9555 13.1542 27.7959" stroke="#5C5CFF" stroke-width="1.5" stroke-miterlimit="10"/>
</svg>
