<svg width="35" height="35" viewBox="0 0 35 35" fill="none" xmlns="http://www.w3.org/2000/svg">
<path d="M32.0833 12.676C32.0833 14.4114 31.8062 16.0156 31.325 17.5031H3.67499C3.19374 16.0156 2.91666 14.4114 2.91666 12.676C2.91666 8.16976 6.54791 4.52393 11.025 4.52393C13.6646 4.52393 16.0271 5.80726 17.5 7.77601C18.2523 6.76803 19.2292 5.94929 20.3532 5.38477C21.4771 4.82026 22.7172 4.52551 23.975 4.52393C28.4521 4.52393 32.0833 8.16976 32.0833 12.676Z" fill="#5C5CFF"/>
<path opacity="0.4" d="M31.325 17.5C29.0208 24.7917 21.9187 29.1521 18.4042 30.3479C17.9083 30.5229 17.0917 30.5229 16.5958 30.3479C13.0812 29.1521 5.97915 24.7917 3.67499 17.5H31.325Z" fill="#5C5CFF"/>
</svg>
