<svg width="25" height="25" viewBox="0 0 25 25" fill="none" xmlns="http://www.w3.org/2000/svg">
<path d="M20.8333 16.9229C20.8333 16.6152 20.7727 16.3105 20.6549 16.0262C20.5371 15.7419 20.3644 15.4836 20.1468 15.266C19.9291 15.0485 19.6708 14.8759 19.3864 14.7582C19.1021 14.6406 18.7973 14.5801 18.4896 14.5802H6.51041C6.20258 14.5801 5.89775 14.6406 5.61333 14.7583C5.32891 14.8761 5.07048 15.0487 4.85282 15.2664C4.63516 15.484 4.46252 15.7425 4.34479 16.0269C4.22705 16.3113 4.16652 16.6161 4.16666 16.924V17.525C4.16666 18.4552 4.49895 19.3542 5.10207 20.0615C6.73436 21.9719 9.21978 22.9156 12.4958 22.9156C15.7729 22.9156 18.2594 21.9729 19.8937 20.0625C20.4999 19.3548 20.8332 18.4537 20.8333 17.5219V16.9229ZM6.50937 16.1427H18.4896C18.9198 16.1427 19.2687 16.4917 19.2687 16.924V17.5229C19.2689 18.0817 19.0694 18.6222 18.7062 19.0469C17.3969 20.5761 15.3479 21.3521 12.4948 21.3521C9.6427 21.3521 7.59478 20.5761 6.28957 19.0469C5.92724 18.6226 5.72815 18.083 5.72812 17.525V16.9229C5.72839 16.7161 5.81068 16.5178 5.95694 16.3715C6.1032 16.2253 6.30148 16.143 6.50832 16.1427H6.50937ZM17.7052 7.29376C17.7053 6.19684 17.3591 5.12788 16.716 4.2393C16.0728 3.35071 15.1655 2.68788 14.1235 2.3453C13.0814 2.00272 11.9578 1.99789 10.9128 2.3315C9.86789 2.6651 8.95493 3.32012 8.30416 4.20314C8.22868 4.17923 8.15 4.16694 8.07082 4.16668H5.46874C5.26154 4.16668 5.06283 4.24899 4.91631 4.3955C4.7698 4.54202 4.68749 4.74073 4.68749 4.94793V10.675C4.68722 11.0514 4.76111 11.4241 4.90495 11.7719C5.04878 12.1197 5.25974 12.4357 5.52577 12.7019C5.7918 12.9681 6.10768 13.1793 6.45536 13.3234C6.80305 13.4675 7.17572 13.5417 7.55207 13.5417H7.81249V13.5375H7.82291C7.99939 13.5378 8.17304 13.4931 8.32749 13.4077C8.48194 13.3224 8.61212 13.1991 8.70574 13.0495C8.79937 12.8999 8.85338 12.7289 8.86266 12.5526C8.87195 12.3764 8.83622 12.2007 8.75883 12.0421C8.68145 11.8835 8.56495 11.7472 8.42033 11.646C8.27571 11.5449 8.10771 11.4822 7.93218 11.4639C7.75664 11.4457 7.57935 11.4724 7.41699 11.5416C7.25463 11.6107 7.11256 11.7201 7.00416 11.8594C6.77858 11.7547 6.58768 11.5877 6.45403 11.378C6.32039 11.1683 6.24958 10.9247 6.24999 10.6761V10.4167H7.02916C7.42499 10.4167 7.7927 10.2896 8.09166 10.075C8.69415 11.0302 9.59077 11.7637 10.6464 12.1649C11.702 12.5661 12.8595 12.6134 13.9443 12.2995C15.0291 11.9857 15.9826 11.3277 16.6609 10.4249C17.3393 9.52198 17.7058 8.42308 17.7052 7.29376ZM7.28853 7.18335C7.28701 7.25695 7.28701 7.33058 7.28853 7.40418V8.59272C7.28853 8.66179 7.26109 8.72803 7.21226 8.77686C7.16342 8.8257 7.09718 8.85314 7.02812 8.85314H6.24999V5.73022H7.28957V7.18335H7.28853ZM8.85103 7.38647V7.20106C8.87541 6.24246 9.27647 5.33206 9.96733 4.66707C10.6582 4.00208 11.5832 3.63603 12.542 3.64822C13.5009 3.66042 14.4163 4.04987 15.09 4.73221C15.7637 5.41456 16.1415 6.33486 16.1415 7.29376C16.1415 8.25267 15.7637 9.17297 15.09 9.85531C14.4163 10.5377 13.5009 10.9271 12.542 10.9393C11.5832 10.9515 10.6582 10.5854 9.96733 9.92046C9.27647 9.25546 8.87541 8.34507 8.85103 7.38647Z" fill="white"/>
</svg>
