<svg width="25" height="25" viewBox="0 0 25 25" fill="none" xmlns="http://www.w3.org/2000/svg">
<path d="M9.1925 10.1825C9.2507 10.2406 9.29688 10.3095 9.32839 10.3855C9.3599 10.4614 9.37612 10.5428 9.37612 10.625C9.37612 10.7072 9.3599 10.7886 9.32839 10.8645C9.29688 10.9405 9.2507 11.0094 9.1925 11.0675L8.38375 11.875H16.6163L15.8075 11.0675C15.6901 10.9501 15.6242 10.791 15.6242 10.625C15.6242 10.459 15.6901 10.2999 15.8075 10.1825C15.9249 10.0651 16.084 9.99921 16.25 9.99921C16.416 9.99921 16.5751 10.0651 16.6925 10.1825L18.5675 12.0575C18.6257 12.1156 18.6719 12.1845 18.7034 12.2605C18.7349 12.3364 18.7511 12.4178 18.7511 12.5C18.7511 12.5822 18.7349 12.6636 18.7034 12.7395C18.6719 12.8155 18.6257 12.8844 18.5675 12.9425L16.6925 14.8175C16.5751 14.9349 16.416 15.0008 16.25 15.0008C16.084 15.0008 15.9249 14.9349 15.8075 14.8175C15.6901 14.7001 15.6242 14.541 15.6242 14.375C15.6242 14.209 15.6901 14.0499 15.8075 13.9325L16.6163 13.125H8.38375L9.1925 13.9325C9.30986 14.0499 9.37579 14.209 9.37579 14.375C9.37579 14.541 9.30986 14.7001 9.1925 14.8175C9.07514 14.9349 8.91597 15.0008 8.75 15.0008C8.58403 15.0008 8.42486 14.9349 8.3075 14.8175L6.4325 12.9425C6.3743 12.8844 6.32812 12.8155 6.29661 12.7395C6.2651 12.6636 6.24888 12.5822 6.24888 12.5C6.24888 12.4178 6.2651 12.3364 6.29661 12.2605C6.32812 12.1845 6.3743 12.1156 6.4325 12.0575L8.3075 10.1825C8.36556 10.1243 8.43453 10.0781 8.51046 10.0466C8.58639 10.0151 8.66779 9.99888 8.75 9.99888C8.83221 9.99888 8.91361 10.0151 8.98954 10.0466C9.06547 10.0781 9.13444 10.1243 9.1925 10.1825ZM21.25 7.5C21.25 6.50544 20.8549 5.55161 20.1517 4.84835C19.4484 4.14509 18.4946 3.75 17.5 3.75H7.5C6.50544 3.75 5.55161 4.14509 4.84835 4.84835C4.14509 5.55161 3.75 6.50544 3.75 7.5V17.5C3.75 18.4946 4.14509 19.4484 4.84835 20.1517C5.55161 20.8549 6.50544 21.25 7.5 21.25H17.5C18.4946 21.25 19.4484 20.8549 20.1517 20.1517C20.8549 19.4484 21.25 18.4946 21.25 17.5V7.5ZM16.25 5V8.75C16.6975 8.75 17.145 8.90875 17.5 9.2275V5C18.163 5 18.7989 5.26339 19.2678 5.73223C19.7366 6.20107 20 6.83696 20 7.5V17.5C20 18.163 19.7366 18.7989 19.2678 19.2678C18.7989 19.7366 18.163 20 17.5 20V15.7725C17.1566 16.0805 16.7113 16.2506 16.25 16.25V20H8.75V16.25C8.3025 16.25 7.855 16.0913 7.5 15.7725V20C6.83696 20 6.20107 19.7366 5.73223 19.2678C5.26339 18.7989 5 18.163 5 17.5V7.5C5 6.83696 5.26339 6.20107 5.73223 5.73223C6.20107 5.26339 6.83696 5 7.5 5V9.2275C7.84345 8.9195 8.28868 8.74942 8.75 8.75V5H16.25Z" fill="white"/>
</svg>
