<svg width="30" height="30" viewBox="0 0 30 30" fill="none" xmlns="http://www.w3.org/2000/svg">
<g clip-path="url(#clip0_176_1028)">
<path d="M21.5625 21.5625V24.375H7.96875C6.84987 24.375 5.77681 23.9305 4.98564 23.1394C4.19447 22.3482 3.75 21.2751 3.75 20.1562C3.75 19.0374 4.19447 17.9643 4.98564 17.1731C5.77681 16.382 6.84987 15.9375 7.96875 15.9375H8.4375V14.0625H7.96875C6.35259 14.0625 4.80262 14.7045 3.65982 15.8473C2.51702 16.9901 1.875 18.5401 1.875 20.1562C1.875 21.7724 2.51702 23.3224 3.65982 24.4652C4.80262 25.608 6.35259 26.25 7.96875 26.25H21.5625V29.0625H29.0625V21.5625H21.5625ZM27.1875 27.1875H23.4375V23.4375H27.1875V27.1875Z" fill="white"/>
<path d="M19.6875 20.625H17.8125V17.8125H12.1875V20.625H10.3125V17.8125C10.313 17.3154 10.5107 16.8387 10.8622 16.4872C11.2137 16.1357 11.6904 15.938 12.1875 15.9375H17.8125C18.3096 15.938 18.7863 16.1357 19.1378 16.4872C19.4893 16.8387 19.687 17.3154 19.6875 17.8125V20.625ZM15 15C14.4437 15 13.9 14.8351 13.4375 14.526C12.9749 14.217 12.6145 13.7777 12.4016 13.2638C12.1887 12.7499 12.133 12.1844 12.2415 11.6388C12.3501 11.0932 12.6179 10.5921 13.0113 10.1988C13.4046 9.80543 13.9057 9.53756 14.4513 9.42904C14.9969 9.32052 15.5624 9.37622 16.0763 9.58909C16.5902 9.80196 17.0295 10.1624 17.3385 10.625C17.6476 11.0875 17.8125 11.6312 17.8125 12.1875C17.8118 12.9332 17.5152 13.6481 16.9879 14.1754C16.4606 14.7027 15.7457 14.9993 15 15ZM15 11.25C14.8146 11.25 14.6333 11.305 14.4792 11.408C14.325 11.511 14.2048 11.6574 14.1339 11.8287C14.0629 12 14.0443 12.1885 14.0805 12.3704C14.1167 12.5523 14.206 12.7193 14.3371 12.8504C14.4682 12.9815 14.6352 13.0708 14.8171 13.107C14.999 13.1432 15.1875 13.1246 15.3588 13.0536C15.5301 12.9827 15.6765 12.8625 15.7795 12.7083C15.8825 12.5542 15.9375 12.3729 15.9375 12.1875C15.9373 11.9389 15.8384 11.7006 15.6626 11.5249C15.4869 11.3491 15.2486 11.2502 15 11.25Z" fill="white"/>
<path d="M22.0312 3.75H8.4375V0.9375H0.9375V8.4375H8.4375V5.625H22.0312C23.1501 5.625 24.2232 6.06947 25.0144 6.86064C25.8055 7.65181 26.25 8.72487 26.25 9.84375C26.25 10.9626 25.8055 12.0357 25.0144 12.8269C24.2232 13.618 23.1501 14.0625 22.0312 14.0625H21.5625V15.9375H22.0312C23.6474 15.9375 25.1974 15.2955 26.3402 14.1527C27.483 13.0099 28.125 11.4599 28.125 9.84375C28.125 8.22759 27.483 6.67762 26.3402 5.53482C25.1974 4.39202 23.6474 3.75 22.0312 3.75ZM6.5625 6.5625H2.8125V2.8125H6.5625V6.5625Z" fill="white"/>
</g>
<defs>
<clipPath id="clip0_176_1028">
<rect width="30" height="30" fill="white"/>
</clipPath>
</defs>
</svg>
