<svg width="35" height="35" viewBox="0 0 35 35" fill="none" xmlns="http://www.w3.org/2000/svg">
<path opacity="0.4" d="M17.7318 15.8521C17.586 15.8375 17.411 15.8375 17.2505 15.8521C15.5767 15.7953 13.9907 15.0892 12.8283 13.8833C11.666 12.6774 11.0187 11.0665 11.0235 9.3917C11.0235 5.81879 13.911 2.9167 17.4985 2.9167C19.2138 2.88576 20.8712 3.5375 22.106 4.72855C23.3408 5.91961 24.0519 7.5524 24.0828 9.26774C24.1138 10.9831 23.462 12.6405 22.271 13.8753C21.0799 15.1101 19.4471 15.8212 17.7318 15.8521V15.8521Z" stroke="#5C5CFF" stroke-width="1.5" stroke-linecap="round" stroke-linejoin="round"/>
<path d="M10.4401 21.2334C6.91092 23.5959 6.91092 27.4459 10.4401 29.7938C14.4505 32.4771 21.0276 32.4771 25.038 29.7938C28.5672 27.4313 28.5672 23.5813 25.038 21.2334C21.0422 18.5646 14.4651 18.5646 10.4401 21.2334V21.2334Z" stroke="#5C5CFF" stroke-width="1.5" stroke-linecap="round" stroke-linejoin="round"/>
</svg>
