<svg width="55" height="40" viewBox="0 0 55 40" fill="none" xmlns="http://www.w3.org/2000/svg">
<path d="M25 40H13.75C9.95833 40 6.71917 38.6875 4.0325 36.0625C1.34417 33.4375 0 30.2292 0 26.4375C0 23.1875 0.979167 20.2917 2.9375 17.75C4.89583 15.2083 7.45833 13.5833 10.625 12.875C11.6667 9.04167 13.75 5.9375 16.875 3.5625C20 1.1875 23.5417 0 27.5 0C32.375 0 36.51 1.6975 39.905 5.0925C43.3017 8.48917 45 12.625 45 17.5C47.875 17.8333 50.2608 19.0725 52.1575 21.2175C54.0525 23.3642 55 25.875 55 28.75C55 31.875 53.9067 34.5317 51.72 36.72C49.5317 38.9067 46.875 40 43.75 40H30V22.125L34 26L37.5 22.5L27.5 12.5L17.5 22.5L21 26L25 22.125V40Z" fill="#5C5CFF"/>
</svg>
