<svg width="25" height="25" viewBox="0 0 25 25" fill="none" xmlns="http://www.w3.org/2000/svg">
<path d="M9.37501 22.9166H15.625C20.8333 22.9166 22.9167 20.8333 22.9167 15.625V9.37498C22.9167 4.16665 20.8333 2.08331 15.625 2.08331H9.37501C4.16668 2.08331 2.08334 4.16665 2.08334 9.37498V15.625C2.08334 20.8333 4.16668 22.9166 9.37501 22.9166Z" stroke="white" stroke-width="1.5" stroke-linecap="round" stroke-linejoin="round"/>
<path d="M16.2187 19.2709V15.2084M16.2187 7.76044V5.72919M8.78124 19.2709V17.2396M8.78124 9.79169V5.72919M16.2187 13.1771C16.5744 13.1771 16.9266 13.1071 17.2552 12.9709C17.5838 12.8348 17.8823 12.6353 18.1338 12.3839C18.3853 12.1324 18.5848 11.8338 18.7209 11.5052C18.857 11.1766 18.9271 10.8244 18.9271 10.4688C18.9271 10.1131 18.857 9.76093 18.7209 9.43234C18.5848 9.10375 18.3853 8.80518 18.1338 8.55369C17.8823 8.3022 17.5838 8.1027 17.2552 7.9666C16.9266 7.83049 16.5744 7.76044 16.2187 7.76044C15.5004 7.76044 14.8116 8.04578 14.3037 8.55369C13.7957 9.0616 13.5104 9.75048 13.5104 10.4688C13.5104 11.1871 13.7957 11.8759 14.3037 12.3839C14.8116 12.8918 15.5004 13.1771 16.2187 13.1771V13.1771ZM8.78124 17.2396C9.1369 17.2396 9.48908 17.1696 9.81767 17.0334C10.1463 16.8973 10.4448 16.6978 10.6963 16.4464C10.9478 16.1949 11.1473 15.8963 11.2834 15.5677C11.4195 15.2391 11.4896 14.8869 11.4896 14.5313C11.4896 14.1756 11.4195 13.8234 11.2834 13.4948C11.1473 13.1662 10.9478 12.8677 10.6963 12.6162C10.4448 12.3647 10.1463 12.1652 9.81767 12.0291C9.48908 11.893 9.1369 11.8229 8.78124 11.8229C8.06295 11.8229 7.37407 12.1083 6.86616 12.6162C6.35825 13.1241 6.07291 13.813 6.07291 14.5313C6.07291 15.2496 6.35825 15.9384 6.86616 16.4464C7.37407 16.9543 8.06295 17.2396 8.78124 17.2396V17.2396Z" stroke="white" stroke-width="1.5" stroke-miterlimit="10" stroke-linecap="round" stroke-linejoin="round"/>
</svg>
