<svg width="25" height="25" viewBox="0 0 25 25" fill="none" xmlns="http://www.w3.org/2000/svg">
<path d="M20.3125 8.33335C22.3229 8.33335 23.9583 6.69794 23.9583 4.68752C23.9583 2.6771 22.3229 1.04169 20.3125 1.04169C18.3021 1.04169 16.6667 2.6771 16.6667 4.68752C16.6667 6.69794 18.3021 8.33335 20.3125 8.33335ZM21.875 16.6667V10.1979C21.3542 10.3438 20.8333 10.4167 20.3125 10.4167H19.7917V16.6667C19.7917 18.3959 18.3958 19.7917 16.6667 19.7917H8.33333C6.60417 19.7917 5.20833 18.3959 5.20833 16.6667V8.33335C5.20833 6.60419 6.60417 5.20835 8.33333 5.20835H14.5833V4.68752C14.5833 4.16669 14.6562 3.64585 14.8021 3.12502H8.33333C5.45833 3.12502 3.125 5.45835 3.125 8.33335V16.6667C3.125 19.5417 5.45833 21.875 8.33333 21.875H16.6667C19.5417 21.875 21.875 19.5417 21.875 16.6667Z" fill="white"/>
</svg>
