<svg width="25" height="25" viewBox="0 0 25 25" fill="none" xmlns="http://www.w3.org/2000/svg">
<g clip-path="url(#clip0_737_1152)">
<path d="M22.6562 13.6718H3.90625V4.8827C3.90534 4.55171 3.9701 4.22383 4.09677 3.91803C4.22343 3.61224 4.4095 3.33461 4.64419 3.10121L4.66372 3.08167C5.03152 2.71441 5.50375 2.46966 6.01587 2.38085C6.528 2.29204 7.05506 2.3635 7.52505 2.58548C7.08119 3.32347 6.8967 4.18863 7.0009 5.04348C7.10509 5.89834 7.49201 6.69384 8.10015 7.3036L8.63486 7.83832L7.65063 8.82259L8.75542 9.92738L9.73965 8.94315L15.1932 3.48968L16.1774 2.50545L15.0726 1.40062L14.0883 2.38485L13.5536 1.85013C12.9134 1.21172 12.0695 0.818178 11.1689 0.738087C10.2684 0.657997 9.36826 0.896435 8.62544 1.41185C7.84215 0.917179 6.9139 0.703626 5.99319 0.806273C5.07248 0.908919 4.21405 1.32166 3.55894 1.97669L3.5394 1.99623C3.15915 2.3744 2.85768 2.82423 2.65245 3.3197C2.44721 3.81516 2.34229 4.34641 2.34375 4.8827V13.6718H0.78125V15.2343H2.34375V16.7333C2.34372 16.8592 2.36403 16.9844 2.40391 17.1038L3.85742 21.4642C3.93499 21.6976 4.08414 21.9007 4.28369 22.0446C4.48325 22.1884 4.72305 22.2657 4.96904 22.2655H5.59893L5.0293 24.2186H6.65688L7.22656 22.2655H17.3877L17.9736 24.2186H19.6045L19.0186 22.2655H20.0308C20.2768 22.2658 20.5166 22.1885 20.7162 22.0446C20.9158 21.9008 21.065 21.6977 21.1426 21.4642L22.596 17.1038C22.6359 16.9844 22.6562 16.8592 22.6562 16.7333V15.2343H24.2188V13.6718H22.6562ZM9.20508 2.95497C9.63554 2.52544 10.2188 2.28421 10.8269 2.28421C11.435 2.28421 12.0183 2.52544 12.4488 2.95497L12.9834 3.48968L9.73979 6.73329L9.20508 6.19867C8.77557 5.76819 8.53436 5.18492 8.53436 4.57682C8.53436 3.96871 8.77557 3.38544 9.20508 2.95497ZM21.0938 16.6698L19.7494 20.703H5.25059L3.90625 16.6698V15.2343H21.0938V16.6698Z" fill="#505050"/>
</g>
<defs>
<clipPath id="clip0_737_1152">
<rect width="25" height="25" fill="white"/>
</clipPath>
</defs>
</svg>
