<svg width="20" height="20" viewBox="0 0 20 20" fill="none" xmlns="http://www.w3.org/2000/svg">
<path d="M4.78332 13.3334C4.87498 12.925 4.70832 12.3417 4.41665 12.05L2.39165 10.025C1.75832 9.39169 1.50832 8.71669 1.69165 8.13335C1.88332 7.55002 2.47498 7.15002 3.35832 7.00002L5.95832 6.56669C6.33332 6.50002 6.79165 6.16669 6.96665 5.82502L8.39998 2.95002C8.81665 2.12502 9.38332 1.66669 9.99998 1.66669C10.6167 1.66669 11.1833 2.12502 11.6 2.95002L13.0333 5.82502C13.1417 6.04169 13.3667 6.25002 13.6083 6.39169L4.63332 15.3667C4.51665 15.4834 4.31665 15.375 4.34998 15.2084L4.78332 13.3334ZM15.5833 12.0517C15.2833 12.3517 15.1167 12.9267 15.2167 13.335L15.7917 15.8434C16.0333 16.885 15.8833 17.6684 15.3667 18.0434C15.1472 18.1967 14.8843 18.2756 14.6167 18.2684C14.1917 18.2684 13.6917 18.11 13.1417 17.785L10.7 16.335C10.3167 16.11 9.68332 16.11 9.29998 16.335L6.85832 17.785C5.93332 18.3267 5.14165 18.4184 4.63332 18.0434C4.44165 17.9017 4.29998 17.71 4.20832 17.46L14.3417 7.32669C14.725 6.94335 15.2667 6.76835 15.7917 6.86002L16.6333 7.00169C17.5166 7.15169 18.1083 7.55169 18.3 8.13502C18.4833 8.71835 18.2333 9.39335 17.6 10.0267L15.5833 12.0517Z" fill="#FFBA09"/>
</svg>
