<svg width="80" height="80" viewBox="0 0 80 80" fill="none" xmlns="http://www.w3.org/2000/svg">
<path d="M50 73.3334C48.6333 73.3334 47.5 72.2 47.5 70.8334V9.16669C47.5 7.80002 48.6333 6.66669 50 6.66669C51.3667 6.66669 52.5 7.80002 52.5 9.16669V70.8334C52.5 72.2 51.3667 73.3334 50 73.3334Z" fill="#5C5CFF"/>
<path opacity="0.4" d="M21.6666 66.6666H41.6666V13.3333H21.6666C14.2999 13.3333 8.33325 19.3 8.33325 26.6666V53.3333C8.33325 60.7 14.2999 66.6666 21.6666 66.6666ZM59.9999 66.6666H49.9999V13.3333H59.9999C67.3666 13.3333 73.3333 19.3 73.3333 26.6666V53.3333C73.3333 60.7 67.3666 66.6666 59.9999 66.6666Z" fill="#5C5CFF"/>
<path d="M19.1667 43.3333C18.7334 43.3333 18.3 43.2333 17.9 43.0667C17.5 42.9 17.1334 42.6667 16.8 42.3667C16.5 42.0333 16.2667 41.6667 16.0667 41.2667C15.9062 40.864 15.8269 40.4335 15.8334 40C15.8334 39.1333 16.2 38.2667 16.8 37.6333L17.3 37.2333C17.5 37.1 17.7 37 17.9 36.9333C18.1 36.8333 18.3 36.7667 18.5 36.7333C19.6334 36.5 20.7667 36.8667 21.5334 37.6333C22.1334 38.2667 22.5 39.1333 22.5 40C22.5 40.4333 22.4 40.8667 22.2334 41.2667C22.0667 41.6667 21.8334 42.0333 21.5334 42.3667C21.2 42.6667 20.8334 42.9 20.4334 43.0667C20.0334 43.2333 19.6 43.3333 19.1667 43.3333ZM30.8334 43.3333C30.4 43.3333 29.9667 43.2333 29.5667 43.0667C29.1667 42.9 28.8 42.6667 28.4667 42.3667C28.0003 41.9003 27.6844 41.305 27.5596 40.6573C27.4348 40.0097 27.507 39.3396 27.7667 38.7333C27.9334 38.3 28.1667 37.9667 28.4667 37.6333C29.7 36.4 31.9334 36.4 33.2 37.6333C33.8 38.2667 34.1667 39.1333 34.1667 40C34.1667 40.4333 34.0667 40.8667 33.9 41.2667C33.7334 41.6667 33.5 42.0333 33.2 42.3667C32.8667 42.6667 32.5 42.9 32.1 43.0667C31.7 43.2333 31.2667 43.3333 30.8334 43.3333Z" fill="#5C5CFF"/>
</svg>
