<svg width="35" height="35" viewBox="0 0 35 35" fill="none" xmlns="http://www.w3.org/2000/svg">
<g clip-path="url(#clip0_73_717)">
<path d="M7.29166 27.7083V33.5416H33.5417V8.70617H27.7083M2.91666 26.2499L10.2083 17.4999L14.5833 21.8749L20.4167 14.5833L27.7083 23.3333M1.45833 1.45825H27.7083V27.7083H1.45833V1.45825ZM8.75 11.6666C9.13677 11.6666 9.5077 11.5129 9.78119 11.2395C10.0547 10.966 10.2083 10.595 10.2083 10.2083C10.2083 9.82148 10.0547 9.45055 9.78119 9.17706C9.5077 8.90357 9.13677 8.74992 8.75 8.74992C8.36322 8.74992 7.99229 8.90357 7.7188 9.17706C7.44531 9.45055 7.29166 9.82148 7.29166 10.2083C7.29166 10.595 7.44531 10.966 7.7188 11.2395C7.99229 11.5129 8.36322 11.6666 8.75 11.6666Z" stroke="white" stroke-width="2.91667"/>
</g>
<defs>
<clipPath id="clip0_73_717">
<rect width="35" height="35" fill="white"/>
</clipPath>
</defs>
</svg>
