<svg width="22" height="20" viewBox="0 0 22 20" fill="none" xmlns="http://www.w3.org/2000/svg">
<path d="M18.6343 7.04159C17.6855 3.19159 14.0437 1.45825 10.8448 1.45825H10.8357C7.64584 1.45825 3.99508 3.18325 3.04624 7.03325C1.98896 11.3333 4.84451 14.9749 7.42897 17.2666C8.34502 18.0842 9.56991 18.5414 10.8448 18.5416C12.0738 18.5416 13.3027 18.1166 14.2516 17.2666C16.836 14.9749 19.6916 11.3416 18.6343 7.04159ZM10.8448 11.2166C10.471 11.2166 10.1008 11.1487 9.75547 11.0168C9.41012 10.8849 9.09632 10.6915 8.83199 10.4477C8.56767 10.204 8.358 9.91461 8.21495 9.59613C8.0719 9.27765 7.99827 8.93631 7.99827 8.59159C7.99827 8.24687 8.0719 7.90552 8.21495 7.58704C8.358 7.26856 8.56767 6.97918 8.83199 6.73543C9.09632 6.49168 9.41012 6.29832 9.75547 6.1664C10.1008 6.03448 10.471 5.96659 10.8448 5.96659C11.5997 5.96659 12.3237 6.24315 12.8576 6.73543C13.3914 7.22771 13.6913 7.89539 13.6913 8.59159C13.6913 9.28778 13.3914 9.95546 12.8576 10.4477C12.3237 10.94 11.5997 11.2166 10.8448 11.2166Z" fill="#AFAFAF"/>
</svg>
