<svg width="25" height="25" viewBox="0 0 25 25" fill="none" xmlns="http://www.w3.org/2000/svg">
<g clip-path="url(#clip0_43_386)">
<path d="M10.0703 18.2625V9.92813H9.08125C8.37288 10.3057 7.68827 10.7263 7.03125 11.1875V12.2734C7.61719 11.8719 8.54531 11.3047 8.99687 11.0594H9.01562V18.2625H10.0703ZM11.9266 16.2234C12 17.2234 12.8547 18.4203 14.5875 18.4203C16.5531 18.4203 17.7125 16.7547 17.7125 13.9344C17.7125 10.9125 16.4922 9.76562 14.6609 9.76562C13.2141 9.76562 11.8531 10.8156 11.8531 12.5922C11.8531 14.4047 13.1406 15.3578 14.4719 15.3578C15.6375 15.3578 16.3938 14.7703 16.6328 14.1234H16.675C16.6687 16.1797 15.9547 17.5047 14.6359 17.5047C13.5984 17.5047 13.0609 16.8016 12.9953 16.2234H11.9266ZM16.5406 12.6031C16.5406 13.6906 15.6672 14.4469 14.6906 14.4469C13.7516 14.4469 12.9031 13.8484 12.9031 12.5719C12.9031 11.2859 13.8125 10.6812 14.7281 10.6812C15.7172 10.6812 16.5406 11.3031 16.5406 12.6031Z" fill="#515151"/>
<path d="M5.46875 0C5.67595 0 5.87466 0.08231 6.02118 0.228823C6.16769 0.375336 6.25 0.57405 6.25 0.78125V1.5625H18.75V0.78125C18.75 0.57405 18.8323 0.375336 18.9788 0.228823C19.1253 0.08231 19.324 0 19.5312 0C19.7385 0 19.9372 0.08231 20.0837 0.228823C20.2302 0.375336 20.3125 0.57405 20.3125 0.78125V1.5625H21.875C22.7038 1.5625 23.4987 1.89174 24.0847 2.47779C24.6708 3.06384 25 3.8587 25 4.6875V21.875C25 22.7038 24.6708 23.4987 24.0847 24.0847C23.4987 24.6708 22.7038 25 21.875 25H3.125C2.2962 25 1.50134 24.6708 0.915291 24.0847C0.32924 23.4987 0 22.7038 0 21.875V4.6875C0 3.8587 0.32924 3.06384 0.915291 2.47779C1.50134 1.89174 2.2962 1.5625 3.125 1.5625H4.6875V0.78125C4.6875 0.57405 4.76981 0.375336 4.91632 0.228823C5.06284 0.08231 5.26155 0 5.46875 0V0ZM1.5625 6.25V21.875C1.5625 22.2894 1.72712 22.6868 2.02015 22.9799C2.31317 23.2729 2.7106 23.4375 3.125 23.4375H21.875C22.2894 23.4375 22.6868 23.2729 22.9799 22.9799C23.2729 22.6868 23.4375 22.2894 23.4375 21.875V6.25H1.5625Z" fill="#515151"/>
</g>
<defs>
<clipPath id="clip0_43_386">
<rect width="25" height="25" fill="white"/>
</clipPath>
</defs>
</svg>
