<svg width="25" height="25" viewBox="0 0 25 25" fill="none" xmlns="http://www.w3.org/2000/svg">
<path d="M12.6042 19.3229L12.5 19.4271L12.3855 19.3229C7.43754 14.8333 4.16671 11.8646 4.16671 8.85417C4.16671 6.77083 5.72921 5.20833 7.81254 5.20833C9.41671 5.20833 10.9792 6.25 11.5313 7.66667H13.4688C14.0209 6.25 15.5834 5.20833 17.1875 5.20833C19.2709 5.20833 20.8334 6.77083 20.8334 8.85417C20.8334 11.8646 17.5625 14.8333 12.6042 19.3229ZM17.1875 3.125C15.375 3.125 13.6355 3.96875 12.5 5.29167C11.3646 3.96875 9.62504 3.125 7.81254 3.125C4.60421 3.125 2.08337 5.63542 2.08337 8.85417C2.08337 12.7812 5.62504 16 10.9896 20.8646L12.5 22.2396L14.0105 20.8646C19.375 16 22.9167 12.7812 22.9167 8.85417C22.9167 5.63542 20.3959 3.125 17.1875 3.125Z" fill="white"/>
</svg>
