<svg width="25" height="25" viewBox="0 0 25 25" fill="none" xmlns="http://www.w3.org/2000/svg">
<path d="M21.875 4.29688H3.125C2.8142 4.29688 2.51613 4.42034 2.29636 4.64011C2.07659 4.85988 1.95312 5.15795 1.95312 5.46875V18.75C1.95569 19.2672 2.16229 19.7625 2.52802 20.1282C2.89375 20.494 3.38904 20.7006 3.90625 20.7031H21.0938C21.611 20.7006 22.1063 20.494 22.472 20.1282C22.8377 19.7625 23.0443 19.2672 23.0469 18.75V5.46875C23.0469 5.15795 22.9234 4.85988 22.7036 4.64011C22.4839 4.42034 22.1858 4.29688 21.875 4.29688ZM18.8672 6.64062L12.5 12.4707L6.13281 6.64062H18.8672ZM4.29688 18.3594V8.13477L11.709 14.9219C11.924 15.1216 12.2065 15.2326 12.5 15.2326C12.7935 15.2326 13.076 15.1216 13.291 14.9219L20.7031 8.13477V18.3594H4.29688Z" fill="#505050"/>
</svg>
