<svg width="25" height="25" viewBox="0 0 25 25" fill="none" xmlns="http://www.w3.org/2000/svg">
<path d="M12.6041 19.3229L12.5 19.4271L12.3854 19.3229C7.43748 14.8333 4.16665 11.8646 4.16665 8.85417C4.16665 6.77083 5.72915 5.20833 7.81248 5.20833C9.41665 5.20833 10.9791 6.25 11.5312 7.66667H13.4687C14.0208 6.25 15.5833 5.20833 17.1875 5.20833C19.2708 5.20833 20.8333 6.77083 20.8333 8.85417C20.8333 11.8646 17.5625 14.8333 12.6041 19.3229ZM17.1875 3.125C15.375 3.125 13.6354 3.96875 12.5 5.29167C11.3646 3.96875 9.62498 3.125 7.81248 3.125C4.60415 3.125 2.08331 5.63542 2.08331 8.85417C2.08331 12.7812 5.62498 16 10.9896 20.8646L12.5 22.2396L14.0104 20.8646C19.375 16 22.9166 12.7812 22.9166 8.85417C22.9166 5.63542 20.3958 3.125 17.1875 3.125Z" fill="#9747FF"/>
</svg>
