<svg width="77" height="15" viewBox="0 0 77 15" fill="none" xmlns="http://www.w3.org/2000/svg">
<path d="M3.41034 9.50589C3.47569 9.21476 3.35687 8.79887 3.14892 8.59092L1.70517 7.14717C1.25363 6.69563 1.07539 6.21438 1.2061 5.79848C1.34275 5.38259 1.76458 5.0974 2.39437 4.99046L4.24807 4.68151C4.51543 4.63398 4.84221 4.39632 4.96697 4.15273L5.98889 2.10296C6.28596 1.51476 6.68997 1.18799 7.12963 1.18799C7.56929 1.18799 7.9733 1.51476 8.27037 2.10296L9.29228 4.15273C9.36952 4.3072 9.52994 4.45574 9.70224 4.55674L3.30339 10.9556C3.22022 11.0388 3.07762 10.9615 3.10139 10.8427L3.41034 9.50589ZM11.1103 8.59211C10.8965 8.806 10.7776 9.21595 10.8489 9.50708L11.2589 11.2954C11.4312 12.0381 11.3242 12.5966 10.9559 12.8639C10.7994 12.9733 10.612 13.0295 10.4211 13.0244C10.1181 13.0244 9.76165 12.9115 9.36952 12.6798L7.6287 11.646C7.3554 11.4855 6.90386 11.4855 6.63055 11.646L4.88974 12.6798C4.23025 13.066 3.66582 13.1313 3.30339 12.8639C3.16674 12.7629 3.06574 12.6263 3.00039 12.4481L10.2251 5.22336C10.4984 4.95006 10.8846 4.82529 11.2589 4.89064L11.8589 4.99165C12.4887 5.09859 12.9106 5.38378 13.0472 5.79967C13.1779 6.21557 12.9997 6.69682 12.5481 7.14836L11.1103 8.59211Z" fill="#FFBA09"/>
<path d="M19.0956 9.50589C19.1609 9.21476 19.0421 8.79887 18.8341 8.59092L17.3904 7.14717C16.9388 6.69563 16.7606 6.21438 16.8913 5.79848C17.028 5.38259 17.4498 5.0974 18.0796 4.99046L19.9333 4.68151C20.2006 4.63398 20.5274 4.39632 20.6522 4.15273L21.6741 2.10296C21.9712 1.51476 22.3752 1.18799 22.8148 1.18799C23.2545 1.18799 23.6585 1.51476 23.9556 2.10296L24.9775 4.15273C25.0547 4.3072 25.2151 4.45574 25.3874 4.55674L18.9886 10.9556C18.9054 11.0388 18.7628 10.9615 18.7866 10.8427L19.0956 9.50589ZM26.7955 8.59211C26.5817 8.806 26.4628 9.21595 26.5341 9.50708L26.9441 11.2954C27.1164 12.0381 27.0094 12.5966 26.6411 12.8639C26.4846 12.9733 26.2972 13.0295 26.1064 13.0244C25.8033 13.0244 25.4469 12.9115 25.0547 12.6798L23.3139 11.646C23.0406 11.4855 22.5891 11.4855 22.3158 11.646L20.5749 12.6798C19.9155 13.066 19.351 13.1313 18.9886 12.8639C18.852 12.7629 18.751 12.6263 18.6856 12.4481L25.9103 5.22336C26.1836 4.95006 26.5698 4.82529 26.9441 4.89064L27.5442 4.99165C28.1739 5.09859 28.5958 5.38378 28.7324 5.79967C28.8631 6.21557 28.6849 6.69682 28.2334 7.14836L26.7955 8.59211Z" fill="#FFBA09"/>
<path d="M34.7807 9.50589C34.8461 9.21476 34.7273 8.79887 34.5193 8.59092L33.0756 7.14717C32.624 6.69563 32.4458 6.21438 32.5765 5.79848C32.7131 5.38259 33.135 5.0974 33.7648 4.99046L35.6185 4.68151C35.8858 4.63398 36.2126 4.39632 36.3374 4.15273L37.3593 2.10296C37.6563 1.51476 38.0604 1.18799 38.5 1.18799C38.9397 1.18799 39.3437 1.51476 39.6408 2.10296L40.6627 4.15273C40.7399 4.3072 40.9003 4.45574 41.0726 4.55674L34.6738 10.9556C34.5906 11.0388 34.448 10.9615 34.4718 10.8427L34.7807 9.50589ZM42.4807 8.59211C42.2668 8.806 42.148 9.21595 42.2193 9.50708L42.6293 11.2954C42.8016 12.0381 42.6946 12.5966 42.3263 12.8639C42.1698 12.9733 41.9824 13.0295 41.7915 13.0244C41.4885 13.0244 41.132 12.9115 40.7399 12.6798L38.9991 11.646C38.7258 11.4855 38.2742 11.4855 38.0009 11.646L36.2601 12.6798C35.6006 13.066 35.0362 13.1313 34.6738 12.8639C34.5371 12.7629 34.4361 12.6263 34.3708 12.4481L41.5955 5.22336C41.8688 4.95006 42.255 4.82529 42.6293 4.89064L43.2293 4.99165C43.8591 5.09859 44.281 5.38378 44.4176 5.79967C44.5483 6.21557 44.3701 6.69682 43.9185 7.14836L42.4807 8.59211Z" fill="#FFBA09"/>
<path d="M50.4659 9.50589C50.5313 9.21476 50.4124 8.79887 50.2045 8.59092L48.7607 7.14717C48.3092 6.69563 48.131 6.21438 48.2617 5.79848C48.3983 5.38259 48.8202 5.0974 49.4499 4.99046L51.3036 4.68151C51.571 4.63398 51.8978 4.39632 52.0225 4.15273L53.0445 2.10296C53.3415 1.51476 53.7455 1.18799 54.1852 1.18799C54.6249 1.18799 55.0289 1.51476 55.3259 2.10296L56.3479 4.15273C56.4251 4.3072 56.5855 4.45574 56.7578 4.55674L50.359 10.9556C50.2758 11.0388 50.1332 10.9615 50.157 10.8427L50.4659 9.50589ZM58.1659 8.59211C57.952 8.806 57.8332 9.21595 57.9045 9.50708L58.3144 11.2954C58.4867 12.0381 58.3798 12.5966 58.0114 12.8639C57.855 12.9733 57.6675 13.0295 57.4767 13.0244C57.1737 13.0244 56.8172 12.9115 56.4251 12.6798L54.6843 11.646C54.411 11.4855 53.9594 11.4855 53.6861 11.646L51.9453 12.6798C51.2858 13.066 50.7214 13.1313 50.359 12.8639C50.2223 12.7629 50.1213 12.6263 50.056 12.4481L57.2806 5.22336C57.554 4.95006 57.9401 4.82529 58.3144 4.89064L58.9145 4.99165C59.5443 5.09859 59.9661 5.38378 60.1028 5.79967C60.2335 6.21557 60.0553 6.69682 59.6037 7.14836L58.1659 8.59211Z" fill="#FFBA09"/>
<path d="M66.1511 9.50589C66.2164 9.21476 66.0976 8.79887 65.8897 8.59092L64.4459 7.14717C63.9944 6.69563 63.8161 6.21438 63.9468 5.79848C64.0835 5.38259 64.5053 5.0974 65.1351 4.99046L66.9888 4.68151C67.2562 4.63398 67.583 4.39632 67.7077 4.15273L68.7296 2.10296C69.0267 1.51476 69.4307 1.18799 69.8704 1.18799C70.31 1.18799 70.7141 1.51476 71.0111 2.10296L72.033 4.15273C72.1103 4.3072 72.2707 4.45574 72.443 4.55674L66.0441 10.9556C65.961 11.0388 65.8184 10.9615 65.8421 10.8427L66.1511 9.50589ZM73.8511 8.59211C73.6372 8.806 73.5184 9.21595 73.5897 9.50708L73.9996 11.2954C74.1719 12.0381 74.065 12.5966 73.6966 12.8639C73.5402 12.9733 73.3527 13.0295 73.1619 13.0244C72.8589 13.0244 72.5024 12.9115 72.1103 12.6798L70.3695 11.646C70.0962 11.4855 69.6446 11.4855 69.3713 11.646L67.6305 12.6798C66.971 13.066 66.4066 13.1313 66.0441 12.8639C65.9075 12.7629 65.8065 12.6263 65.7411 12.4481L72.9658 5.22336C73.2391 4.95006 73.6253 4.82529 73.9996 4.89064L74.5997 4.99165C75.2295 5.09859 75.6513 5.38378 75.788 5.79967C75.9187 6.21557 75.7404 6.69682 75.2889 7.14836L73.8511 8.59211Z" fill="#FFBA09"/>
</svg>
