<svg width="35" height="35" viewBox="0 0 35 35" fill="none" xmlns="http://www.w3.org/2000/svg">
<g clip-path="url(#clip0_225_973)">
<path d="M17.5292 4.24377C12.7021 4.24377 8.77917 8.16669 8.77917 12.9938V17.2084C8.77917 18.0979 8.40001 19.4542 7.94792 20.2125L6.27084 22.9979C5.23542 24.7188 5.95001 26.6292 7.84584 27.2709C14.1313 29.3709 20.9125 29.3709 27.1979 27.2709C28.9625 26.6875 29.7354 24.6021 28.7729 22.9979L27.0958 20.2125C26.6583 19.4542 26.2792 18.0979 26.2792 17.2084V12.9938C26.2792 8.18127 22.3417 4.24377 17.5292 4.24377Z" stroke="#5C5CFF" stroke-width="1.5" stroke-miterlimit="10" stroke-linecap="round"/>
<path d="M20.2271 4.66672C18.4635 4.16446 16.5948 4.16446 14.8313 4.66672C15.2542 3.58756 16.3042 2.82922 17.5292 2.82922C18.7542 2.82922 19.8042 3.58756 20.2271 4.66672Z" stroke="#5C5CFF" stroke-width="1.5" stroke-miterlimit="10" stroke-linecap="round" stroke-linejoin="round"/>
<path d="M21.9042 27.7958C21.9042 30.202 19.9354 32.1708 17.5292 32.1708C16.3333 32.1708 15.225 31.6749 14.4375 30.8874C13.6182 30.0669 13.1568 28.9554 13.1542 27.7958" stroke="#5C5CFF" stroke-width="1.5" stroke-miterlimit="10"/>
<path opacity="0.4" d="M28.2042 21.1283L26.7458 18.7074C26.4396 18.1679 26.1625 17.147 26.1625 16.5491V12.8595C26.1625 8.10536 22.2979 4.2262 17.5292 4.2262C12.7604 4.2262 8.89584 8.10536 8.89584 12.8595V16.5491C8.89584 17.147 8.61875 18.1679 8.3125 18.6929L6.83959 21.1283C6.25625 22.1054 6.125 23.1845 6.48959 24.1762C6.83959 25.1533 7.67084 25.9116 8.75 26.2762C11.5792 27.2387 14.5542 27.7054 17.5292 27.7054C20.5042 27.7054 23.4792 27.2387 26.3083 26.2908C27.3292 25.9554 28.1167 25.1824 28.4958 24.1762C28.875 23.1699 28.7729 22.0616 28.2042 21.1283Z" fill="#5C5CFF"/>
<path d="M20.7812 4.84163C19.775 4.44788 18.6812 4.22913 17.5292 4.22913C16.3917 4.22913 15.2979 4.43329 14.2917 4.84163C14.9187 3.66038 16.1583 2.91663 17.5292 2.91663C18.9146 2.91663 20.1396 3.66038 20.7812 4.84163ZM21.6271 29.1812C21.3204 30.0302 20.7598 30.7641 20.0214 31.2834C19.283 31.8026 18.4027 32.0819 17.5 32.0833C16.3479 32.0833 15.2104 31.6166 14.4083 30.7854C13.9417 30.3479 13.5917 29.7645 13.3875 29.1666C13.5771 29.1958 13.7667 29.2104 13.9708 29.2395C14.3062 29.2833 14.6562 29.327 15.0062 29.3562C15.8375 29.4291 16.6833 29.4729 17.5292 29.4729C18.3604 29.4729 19.1917 29.4291 20.0083 29.3562C20.3146 29.327 20.6208 29.3125 20.9125 29.2687L21.6271 29.1812Z" fill="#5C5CFF"/>
</g>
<defs>
<clipPath id="clip0_225_973">
<rect width="35" height="35" fill="white"/>
</clipPath>
</defs>
</svg>
