<svg width="24" height="24" viewBox="0 0 24 24" fill="none" xmlns="http://www.w3.org/2000/svg">
<g clip-path="url(#clip0_32_477)">
<path d="M12.5 12.5C13.0729 12.5 13.5636 12.2958 13.9719 11.8875C14.3795 11.4798 14.5834 10.9896 14.5834 10.4166C14.5834 9.84373 14.3795 9.3531 13.9719 8.94477C13.5636 8.53713 13.0729 8.33331 12.5 8.33331C11.9271 8.33331 11.4368 8.53713 11.0292 8.94477C10.6209 9.3531 10.4167 9.84373 10.4167 10.4166C10.4167 10.9896 10.6209 11.4798 11.0292 11.8875C11.4368 12.2958 11.9271 12.5 12.5 12.5ZM12.5 20.1562C14.6181 18.2118 16.1893 16.4451 17.2136 14.8562C18.2379 13.268 18.75 11.8576 18.75 10.625C18.75 8.73262 18.1465 7.18297 16.9396 5.97602C15.7334 4.76977 14.2535 4.16665 12.5 4.16665C10.7465 4.16665 9.26634 4.76977 8.0594 5.97602C6.85315 7.18297 6.25002 8.73262 6.25002 10.625C6.25002 11.8576 6.76217 13.268 7.78648 14.8562C8.81078 16.4451 10.382 18.2118 12.5 20.1562ZM12.5 22.9166C9.70488 20.5382 7.61738 18.3288 6.23752 16.2885C4.85696 14.2489 4.16669 12.3611 4.16669 10.625C4.16669 8.02081 5.00453 5.94616 6.68023 4.40102C8.35523 2.85588 10.2952 2.08331 12.5 2.08331C14.7049 2.08331 16.6448 2.85588 18.3198 4.40102C19.9955 5.94616 20.8334 8.02081 20.8334 10.625C20.8334 12.3611 20.1434 14.2489 18.7636 16.2885C17.383 18.3288 15.2952 20.5382 12.5 22.9166Z" fill="white"/>
</g>
<defs>
<clipPath id="clip0_32_477">
<rect width="24" height="24" fill="white"/>
</clipPath>
</defs>
</svg>
